<svg width="106" height="45" viewBox="0 0 106 45" fill="none" xmlns="http://www.w3.org/2000/svg">
<g clip-path="url(#clip0_30_496180)">
<path d="M76.5983 12.7839C76.6206 12.7824 76.6428 12.7811 76.6651 12.7799C82.8885 12.441 88.1502 15.8606 88.0477 22.6298C87.9607 28.3721 83.8801 32.0167 78.2712 32.2945C77.8131 32.3066 77.3618 32.3139 76.9053 32.3079C71.4619 32.2371 66.9455 28.8622 66.7509 23.12C66.5439 17.0135 70.5101 12.9808 76.5983 12.7839ZM77.5341 29.631C78.7623 29.5326 79.7028 29.2104 80.5293 28.2334C82.0029 26.491 82.213 23.3911 82.0422 21.1996C81.9087 19.4918 81.3896 17.3864 80.0309 16.2596C79.2499 15.6117 78.2856 15.3134 77.2753 15.3649C76.0176 15.4865 75.0849 15.8209 74.2568 16.8375C72.7776 18.6534 72.5747 21.7781 72.7926 24.0431C72.9556 25.7363 73.4473 27.6214 74.8086 28.7435C75.5611 29.3638 76.5668 29.6582 77.5341 29.631Z" fill="white"/>
<path d="M58.1092 13.2725L65.73 13.2798C64.3641 15.0082 64.551 16.1954 64.5489 18.2979L64.5473 22.0389L64.5484 26.4528C64.5494 28.7027 64.3072 29.9154 65.7176 31.8075C63.2819 31.8722 60.3922 31.8347 57.9446 31.8078C59.4223 30.0315 59.1428 28.3104 59.1407 26.1441L59.1376 22.5517C59.1397 21.042 59.0776 19.1949 59.1511 17.7165C58.7344 19.0397 57.8882 21.0477 57.3675 22.4L53.8687 31.482L50.6578 31.4926C50.1909 30.4568 49.6579 28.8914 49.2354 27.7712L46.8806 21.5501C46.4177 20.3252 45.9396 18.9827 45.4375 17.7806C45.4898 20.3421 45.3936 22.9247 45.4436 25.4861C45.4892 27.8256 45.0372 29.8985 46.6568 31.8083C44.9811 31.8619 42.9835 31.8225 41.292 31.8098C42.7224 30.0005 42.4705 28.7505 42.4718 26.5607L42.4723 22.05L42.471 18.2379C42.4725 16.043 42.6668 15.1454 41.3371 13.2836C43.8589 13.21 46.6899 13.2742 49.2357 13.2753C50.8021 17.2038 52.2533 21.3321 53.774 25.2987C54.6197 22.9829 55.5927 20.6636 56.4524 18.3498C57.0906 16.6308 57.8395 15.0943 58.1092 13.2725Z" fill="white"/>
<path d="M26.1671 0H26.3173C25.7537 3.63231 24.6632 13.1826 30.0003 14.2138C30.3424 14.2799 30.811 14.2694 31.1623 14.2565C31.5102 17.1214 31.2939 19.5524 29.4341 21.9644L29.4721 21.9757C29.871 22.0966 30.2919 22.3494 30.6853 22.4586C32.5258 22.9696 33.9303 22.7165 35.6567 22.0727L35.7161 22.1122C35.8775 26.7399 34.0515 30.6492 29.7058 32.5947C23.5858 35.3344 18.9377 34.5282 14.7973 40.6231C13.8424 42.1054 13.2388 43.3077 12.7399 45H12.6949C9.6091 40.7995 8.01299 35.563 10.7092 30.7341C11.4568 29.395 13.2734 27.4325 11.5634 25.899C9.41697 23.9742 6.74337 26.6868 5.3472 28.3045C5.09141 27.7223 4.78976 27.1094 4.58046 26.5145C4.32104 26.0669 3.86787 24.9314 3.63044 24.4014C3.51429 24.0845 3.31844 23.6424 3.16978 23.3368C2.04182 21.0178 1.15692 18.3959 0 16.1072V15.9037C1.65351 15.9271 3.34909 15.9084 5.00589 15.909C5.84832 9.61569 9.92011 5.55623 15.8143 3.52847C15.7177 5.42454 15.4443 7.23947 15.8585 9.15071C15.9502 8.95671 16.0434 8.76332 16.1381 8.57072C17.7848 5.22548 20.3305 2.40544 23.7649 0.843081C24.6706 0.431056 25.2677 0.306506 26.1671 0Z" fill="white"/>
<path d="M35.6566 22.0727L35.7159 22.1122C35.8773 26.7399 34.0513 30.6492 29.7056 32.5947C23.5856 35.3344 18.9375 34.5282 14.7972 40.6231L14.6891 40.6358C14.5566 40.5742 14.0099 40.2834 13.9423 40.1757C13.7339 39.8436 13.9068 39.8385 13.4863 39.7969C13.499 39.4502 14.382 37.764 14.6005 37.3812C16.2162 34.5496 19.0072 32.6202 22.1126 31.7323C23.2869 31.3966 24.4905 31.1712 25.6493 30.7753C29.7282 29.4605 33.648 26.8813 35.4225 22.8482C35.5182 22.6309 35.6508 22.3073 35.6566 22.0727Z" fill="#A5A5A6"/>
<path d="M31.1628 14.2565C31.5106 17.1214 31.2943 19.5524 29.4345 21.9644L29.4047 21.9972L29.3618 21.9848C29.3605 21.8946 31.0567 19.2868 30.9174 18.5954C30.2347 19.1846 29.6245 19.5337 28.8751 20.013C27.8254 20.6843 26.766 21.3498 25.7013 22.0056C23.4243 23.379 21.1588 24.7712 18.9052 26.1822L15.9304 27.9946C15.6401 28.1676 14.4429 28.833 14.2431 29.0352C13.6755 29.6097 12.9893 30.8269 12.5389 31.5236C12.3431 31.8265 11.7491 33.4374 11.6318 33.491C11.6332 33.4697 11.6346 33.4483 11.6359 33.427C13.0917 29.2734 16.5346 26.1576 20.2137 23.9256C21.2686 23.2917 22.4084 22.7164 23.4535 22.0757C26.0821 20.4641 30.3792 17.4451 31.1628 14.2565Z" fill="#979798"/>
<path d="M3.63086 24.4014C5.31383 22.7027 7.88397 20.9018 10.3524 20.8054C11.3136 20.7679 12.5169 21.166 13.2121 21.8547C14.0398 22.6748 14.1057 23.4282 14.0509 24.5373C13.9714 24.2454 14.0846 23.457 13.902 23.1803C13.5244 23.0396 12.0083 22.858 11.4929 22.8503C9.35549 22.8183 7.12685 23.1981 5.18159 24.1161C4.89577 24.251 4.04954 24.6021 3.90295 24.738C3.93413 24.9543 4.6101 26.1084 4.58088 26.5145C4.32146 26.0669 3.86829 24.9314 3.63086 24.4014Z" fill="#949596"/>
<path d="M89.1218 13.2778C91.2263 13.2485 93.2811 13.2715 95.4601 13.2717C98.5733 13.2719 104.115 12.7744 104.964 16.8215C105.153 17.7215 104.997 19.0172 104.443 19.7798C103.476 21.1087 101.784 21.516 100.251 21.7821C100.547 21.8341 100.855 21.8563 101.153 21.9139C103.607 22.3893 105.357 23.4865 106 25.9525V27.7295C105.801 28.5733 105.521 29.3529 104.875 29.9639C102.548 32.1622 97.7778 31.8194 94.7733 31.8176L89.0918 31.813C89.4137 31.3894 89.6824 31.1121 89.893 30.6035C90.4163 29.3371 90.3066 27.7961 90.3076 26.4497L90.3097 22.3148L90.3081 18.3044C90.3066 16.2035 90.4887 15.0189 89.1218 13.2778ZM95.7121 29.7107C97.1883 29.7232 98.77 29.941 99.918 28.9108C100.707 27.9386 100.765 27.1017 100.683 25.8559C100.632 25.0726 100.224 24.2493 99.5992 23.7619C98.432 22.8512 97.0832 22.9286 95.7013 22.9298C95.7525 24.8535 95.6951 26.7956 95.7163 28.7212C95.7199 29.0421 95.7251 29.3908 95.7121 29.7107ZM95.7121 20.9785C97.0309 20.9911 98.3404 20.9726 99.4289 20.1067C100.395 19.0525 100.579 17.1877 99.4791 16.1381C98.5619 15.2634 96.9253 15.3598 95.7215 15.3699C95.6656 17.1868 95.7872 19.1959 95.7121 20.9785Z" fill="white"/>
</g>
<defs>
<clipPath id="clip0_30_496180">
<rect width="106" height="45" fill="white"/>
</clipPath>
</defs>
</svg>
