<svg width="24" height="24" viewBox="0 0 24 24" fill="none" xmlns="http://www.w3.org/2000/svg">
<path d="M8.07251 0.625246C8.3535 0.596856 8.61847 0.627074 8.87704 0.738658C9.12322 0.848486 9.41326 1.06609 9.56121 1.29564C9.86184 1.76213 10.0381 2.33603 10.276 2.83957C10.4063 3.14093 10.5398 3.44097 10.6662 3.74393C10.9597 4.44766 10.737 5.2718 10.1308 5.7328C9.89766 5.91005 9.67056 5.98441 9.40445 6.08736C9.48043 6.27125 9.69893 6.6702 9.80064 6.85493C10.4562 8.05061 11.2531 9.16319 12.174 10.1688C12.4023 10.4191 12.7456 10.7815 13.0033 11.0066C13.1456 10.793 13.3503 10.5594 13.5612 10.4148C13.9367 10.1589 14.3987 10.0636 14.8447 10.15C15.0551 10.1897 15.2555 10.2707 15.4344 10.3883C15.5923 10.4917 15.7363 10.6239 15.8782 10.7484L16.4215 11.2259C16.7165 11.4846 17.1538 11.8414 17.4206 12.1039C17.506 12.1866 17.5826 12.2779 17.649 12.3764C18.2764 13.3122 17.8264 14.2605 16.9635 14.8346C16.5085 15.1576 15.8703 15.3711 15.318 15.4494C14.2481 15.6012 13.289 15.3418 12.4296 14.69C9.68261 12.5751 7.523 9.79186 6.1568 6.60556C5.91707 6.03878 5.59832 5.30277 5.51563 4.69777C5.37272 3.65213 5.69198 2.62356 6.32917 1.79106C6.73709 1.25813 7.38894 0.714621 8.07251 0.625246ZM16.9116 13.5834C17.1878 12.9983 16.6423 12.6753 16.263 12.3406L15.4753 11.6506C15.1021 11.324 14.7964 10.9228 14.2452 11.1143C13.7209 11.2965 13.5205 12.3421 12.8822 12.1381C12.7084 12.0684 12.3083 11.6547 12.1548 11.5049C10.8525 10.2312 9.75196 8.76625 8.89123 7.16069C8.70627 6.81941 8.48066 6.40778 8.34018 6.04853C8.28642 5.91106 8.26482 5.76652 8.33004 5.6281C8.55258 5.15575 9.57593 5.31607 9.80869 4.62132C9.85976 4.46886 9.86099 4.31725 9.81073 4.16446C9.75954 4.00889 9.6875 3.85836 9.62215 3.70827L9.32835 3.03046L9.03319 2.34727C8.86942 1.96888 8.71596 1.51882 8.20406 1.56187C7.71227 1.64705 7.2542 2.1237 6.97876 2.50961C6.54754 3.11378 6.32878 3.93249 6.46739 4.66762C6.55357 5.12465 6.8336 5.77384 7.01831 6.21285C8.10789 8.76807 9.73651 11.0578 11.7928 12.9255C12.1036 13.2094 12.4241 13.4825 12.7538 13.7444C12.8801 13.8454 13.0174 13.9627 13.1489 14.0541C13.7793 14.4927 14.5476 14.6398 15.3008 14.4949C15.8581 14.3875 16.593 14.0851 16.9116 13.5834Z" fill="#FFF8DE"/>
<path d="M3.55817 3.21562C3.72554 3.20626 3.95035 3.21228 4.12039 3.21241L5.14276 3.21432C5.05823 3.4635 5.03164 3.90657 5.01326 4.16926C4.57673 4.12524 4.04911 4.17473 3.60377 4.15992C3.22951 4.14746 2.82872 4.33693 2.57442 4.61459C2.38407 4.82041 2.26223 5.08019 2.22571 5.35815C2.20326 5.53064 2.20582 5.77215 2.20569 5.94838L2.20587 6.74624L2.20625 9.37555L2.20612 13.556L2.20582 14.8883C2.20555 15.1446 2.20379 15.3994 2.20962 15.656C2.20615 16.2486 2.68972 16.8629 3.27723 16.9747C3.64039 17.0439 4.19693 17.0168 4.58661 17.0168L6.24789 17.0171C6.47695 17.0163 6.84805 16.9727 7.03029 17.1394C7.23231 17.324 7.18714 17.6496 7.18714 17.9112L7.18669 18.6321L7.18644 21.112L7.18621 21.9184C7.18622 22.023 7.16319 22.336 7.22287 22.4188C7.27214 22.4872 7.36507 22.397 7.41064 22.3513C7.55592 22.2053 7.70289 22.0556 7.84907 21.908L10.9551 18.7746L11.8534 17.8697C12.6219 17.096 12.7104 17.0143 13.8184 17.0157L14.8016 17.0168L18.6447 17.0164L19.8221 17.0169C20.0606 17.017 20.3004 17.0231 20.5376 17.0032C21.17 16.9503 21.7113 16.4243 21.7772 15.7924C21.8024 15.5499 21.7953 15.3099 21.7953 15.066L21.7946 14.001L21.7947 10.5016L21.7949 7.10483L21.7953 6.09379C21.7954 5.42755 21.8311 4.91089 21.2513 4.45261C21.0515 4.29316 20.8097 4.19526 20.5551 4.17083C20.3605 4.15068 20.0918 4.15777 19.8897 4.15784L18.8194 4.15847L15.2921 4.15838L12.5599 4.15816L11.7408 4.15769C11.5898 4.15769 11.3972 4.14913 11.25 4.16938C11.1697 3.71783 11.1165 3.62437 10.9413 3.21386L12.1465 3.21284L18.0633 3.21288L19.6446 3.21262C20.0158 3.21234 20.4903 3.19338 20.8455 3.26089C21.3034 3.34895 21.7241 3.57289 22.0528 3.90354C22.3852 4.23497 22.6093 4.65948 22.6953 5.12097C22.7561 5.45345 22.7374 6.03875 22.7374 6.39807V8.38285L22.7377 15.4926C22.7365 15.744 22.7261 15.9569 22.6624 16.204C22.4411 17.057 21.7598 17.7136 20.8993 17.9034C20.5371 17.9801 20.0027 17.9621 19.6173 17.9618L18.1622 17.9615L14.4983 17.962C14.1893 17.9618 13.3503 17.9199 13.1103 18.0196C13.0379 18.0497 12.9785 18.0927 12.9205 18.1445C12.7349 18.3101 12.5645 18.4998 12.3896 18.6771L11.4656 19.6085L8.09692 23.0015C7.84432 23.251 7.63765 23.39 7.26548 23.3853C6.9872 23.3812 6.72204 23.2664 6.5286 23.0662C6.38962 22.9234 6.29642 22.7423 6.26094 22.5463C6.23335 22.3858 6.24126 22.1189 6.2415 21.9467L6.24285 21.0535C6.24331 20.0276 6.23177 18.9875 6.24333 17.9637C5.37246 17.949 4.49796 17.974 3.62676 17.9593C3.02813 17.9494 2.4914 17.7576 2.04091 17.3577C1.58103 16.9475 1.30378 16.371 1.27064 15.7556C1.25532 15.4981 1.26324 15.1875 1.26354 14.9249L1.26387 13.5647L1.26363 9.2667L1.26315 6.60355L1.26327 5.86924C1.26336 5.66915 1.26171 5.37977 1.29338 5.18322C1.36435 4.74304 1.55939 4.33224 1.8556 3.99902C2.31824 3.48344 2.87735 3.25384 3.55817 3.21562Z" fill="#FFF8DE"/>
</svg>
