<svg width="19" height="19" viewBox="0 0 19 19" fill="none" xmlns="http://www.w3.org/2000/svg">
<path d="M7.5 15C6.01664 15 4.56659 14.5601 3.33323 13.736C2.09986 12.9119 1.13856 11.7406 0.570907 10.3701C0.00324959 8.99968 -0.145275 7.49168 0.144114 6.03682C0.433503 4.58197 1.14781 3.2456 2.1967 2.1967C3.2456 1.14781 4.58197 0.433503 6.03682 0.144114C7.49168 -0.145275 8.99968 0.00324959 10.3701 0.570907C11.7406 1.13856 12.9119 2.09986 13.736 3.33323C14.5601 4.56659 15 6.01664 15 7.5C14.9976 9.48838 14.2066 11.3946 12.8006 12.8006C11.3946 14.2066 9.48838 14.9976 7.5 15ZM7.5 1.66667C6.34628 1.66667 5.21846 2.00879 4.25918 2.64976C3.29989 3.29074 2.55222 4.20178 2.11071 5.26768C1.66919 6.33358 1.55368 7.50647 1.77876 8.63803C2.00384 9.76958 2.55941 10.809 3.37521 11.6248C4.19102 12.4406 5.23042 12.9962 6.36197 13.2212C7.49353 13.4463 8.66642 13.3308 9.73232 12.8893C10.7982 12.4478 11.7093 11.7001 12.3502 10.7408C12.9912 9.78154 13.3333 8.65373 13.3333 7.5C13.3316 5.95345 12.7164 4.47074 11.6228 3.37716C10.5293 2.28358 9.04656 1.66843 7.5 1.66667Z" fill="#CD2029"/>
<path d="M4.99967 7.5H3.33301C3.33433 6.39534 3.77374 5.3363 4.55486 4.55519C5.33597 3.77407 6.39501 3.33466 7.49967 3.33334V5C6.83663 5 6.20075 5.26339 5.73191 5.73224C5.26307 6.20108 4.99967 6.83696 4.99967 7.5Z" fill="#CD2029"/>
<path d="M18.0893 16.9108L14.5426 13.3642C14.1865 13.792 13.7921 14.1864 13.3643 14.5425L16.9109 18.0892C17.0681 18.241 17.2786 18.325 17.4971 18.3231C17.7156 18.3212 17.9246 18.2335 18.0791 18.079C18.2336 17.9245 18.3213 17.7155 18.3232 17.497C18.3251 17.2785 18.2411 17.068 18.0893 16.9108Z" fill="#CD2029"/>
</svg>
