<svg width="53" height="40" viewBox="0 0 53 40" fill="none" xmlns="http://www.w3.org/2000/svg">
<rect width="150" height="40" transform="translate(-97)" fill="#333333"/>
<path d="M33.6602 20.459C33.6602 20.5488 33.5254 23.1992 36.4453 24.5918C35.9062 26.2539 34.0195 29.9375 31.8184 29.9375C30.5605 29.9375 29.8418 29.1289 28.4043 29.1289C26.9219 29.1289 26.1133 29.9375 24.9902 29.9375C22.834 30.0273 20.7676 25.9844 20.1836 24.3223C19.7344 23.0645 19.5547 21.8516 19.5547 20.6836C19.5547 16.6855 22.2051 14.7539 24.7207 14.709C25.9336 14.709 27.4609 15.5625 28.1348 15.5625C28.7637 15.5625 30.5156 14.5293 32.1328 14.6641C33.7949 14.7988 35.0527 15.4277 35.9062 16.6406C34.4238 17.584 33.6602 18.7969 33.6602 20.459ZM31.1445 13.0918C30.2461 14.125 29.168 14.709 28 14.6191C27.9102 13.4062 28.3594 12.2832 29.168 11.3848C29.8867 10.5762 31.1445 9.90234 32.2227 9.8125C32.2227 10.3066 32.3574 11.6543 31.1445 13.0918Z" fill="white"/>
<a href="https://pnb.bank.in/app-store.html">
<rect fill="black" fill-opacity="0" x="0.375" y="-1.725" width="17.25" height="26.45"/>
</a>
</svg>
