<svg width="204" height="61" viewBox="0 0 204 61" fill="none" xmlns="http://www.w3.org/2000/svg">
<rect x="0.5" y="0.5" width="203" height="60" rx="8" fill="white" stroke="#CFCFCF"/>
<path fill-rule="evenodd" clip-rule="evenodd" d="M51.9259 29.1321C51.8899 24.8361 55.4419 22.7481 55.5979 22.6521C53.5819 19.7241 50.4619 19.3161 49.3699 19.2801C46.7539 19.0041 44.2099 20.8521 42.8779 20.8521C41.5219 20.8521 39.4579 19.3161 37.2499 19.3521C34.4059 19.4001 31.7299 21.0441 30.2779 23.6121C27.2659 28.8321 29.5099 36.5121 32.4019 40.7361C33.8539 42.8001 35.5339 45.1161 37.7539 45.0321C39.9139 44.9481 40.7299 43.6521 43.3339 43.6521C45.9259 43.6521 46.6819 45.0321 48.9379 44.9841C51.2659 44.9481 52.7179 42.9081 54.1219 40.8201C55.7899 38.4561 56.4619 36.1161 56.4859 35.9961C56.4259 35.9721 51.9739 34.2681 51.9259 29.1321Z" fill="black"/>
<path fill-rule="evenodd" clip-rule="evenodd" d="M47.6661 16.5076C48.8301 15.0556 49.6221 13.0756 49.4061 11.0596C47.7261 11.1316 45.6141 12.2236 44.4021 13.6516C43.3341 14.9116 42.3741 16.9636 42.6141 18.8956C44.5101 19.0396 46.4541 17.9356 47.6661 16.5076Z" fill="black"/>
<path fill-rule="evenodd" clip-rule="evenodd" d="M78.0979 37.3398L76.5979 32.7198C76.4419 32.2398 76.1419 31.1358 75.7099 29.3838H75.6499C75.4699 30.1398 75.1939 31.2558 74.8099 32.7198L73.3339 37.3398H78.0979ZM83.2699 44.7318H80.2459L78.5899 39.5238H72.8299L71.2579 44.7318H68.3179L74.0179 27.0078H77.5459L83.2699 44.7318Z" fill="black"/>
<path fill-rule="evenodd" clip-rule="evenodd" d="M95.0299 38.2885C95.0299 37.0405 94.7539 36.0205 94.1899 35.2165C93.5779 34.3765 92.7499 33.9565 91.7179 33.9565C91.0219 33.9565 90.3859 34.1965 89.8099 34.6525C89.2459 35.1205 88.8619 35.7205 88.6939 36.4765C88.6099 36.8245 88.5619 37.1125 88.5619 37.3405V39.4765C88.5619 40.4005 88.8499 41.1925 89.4139 41.8285C89.9779 42.4645 90.7219 42.7885 91.6339 42.7885C92.7019 42.7885 93.5299 42.3685 94.1299 41.5525C94.7299 40.7245 95.0299 39.6445 95.0299 38.2885ZM97.9219 38.1925C97.9219 40.3645 97.3339 42.0805 96.1459 43.3405C95.0899 44.4685 93.7699 45.0205 92.2099 45.0205C90.5179 45.0205 89.3059 44.4205 88.5619 43.2085V49.9165H85.7179V36.1525C85.7179 34.7845 85.6819 33.3925 85.6099 31.9525H88.1059L88.2619 33.9805H88.3099C89.2579 32.4565 90.6979 31.6885 92.6179 31.6885C94.1299 31.6885 95.3779 32.2885 96.3859 33.4765C97.4179 34.6765 97.9219 36.2365 97.9219 38.1925Z" fill="black"/>
<path fill-rule="evenodd" clip-rule="evenodd" d="M109.718 38.2885C109.718 37.0405 109.442 36.0205 108.878 35.2165C108.266 34.3765 107.438 33.9565 106.406 33.9565C105.71 33.9565 105.074 34.1965 104.498 34.6525C103.934 35.1205 103.562 35.7205 103.382 36.4765C103.298 36.8245 103.25 37.1125 103.25 37.3405V39.4765C103.25 40.4005 103.538 41.1925 104.102 41.8285C104.666 42.4645 105.41 42.7885 106.322 42.7885C107.39 42.7885 108.23 42.3685 108.818 41.5525C109.43 40.7245 109.718 39.6445 109.718 38.2885ZM112.61 38.1925C112.61 40.3645 112.022 42.0805 110.834 43.3405C109.778 44.4685 108.458 45.0205 106.898 45.0205C105.206 45.0205 103.994 44.4205 103.25 43.2085V49.9165H100.406V36.1525C100.406 34.7845 100.37 33.3925 100.298 31.9525H102.794L102.95 33.9805H102.998C103.946 32.4565 105.386 31.6885 107.306 31.6885C108.818 31.6885 110.066 32.2885 111.074 33.4765C112.106 34.6765 112.61 36.2365 112.61 38.1925Z" fill="black"/>
<path fill-rule="evenodd" clip-rule="evenodd" d="M129.05 39.7639C129.05 41.2759 128.522 42.4999 127.478 43.4479C126.326 44.4799 124.718 44.9959 122.654 44.9959C120.746 44.9959 119.222 44.6239 118.07 43.8919L118.73 41.5279C119.978 42.2599 121.346 42.6319 122.834 42.6319C123.902 42.6319 124.742 42.3919 125.33 41.9119C125.93 41.4319 126.23 40.7839 126.23 39.9799C126.23 39.2599 125.978 38.6599 125.498 38.1679C125.006 37.6759 124.19 37.2199 123.05 36.7999C119.918 35.6359 118.37 33.9439 118.37 31.7239C118.37 30.2719 118.922 29.0839 120.014 28.1479C121.106 27.2239 122.558 26.7559 124.37 26.7559C125.978 26.7559 127.322 27.0319 128.39 27.5959L127.67 29.8999C126.662 29.3599 125.534 29.0839 124.262 29.0839C123.266 29.0839 122.474 29.3359 121.91 29.8159C121.442 30.2599 121.202 30.7879 121.202 31.4239C121.202 32.1199 121.478 32.7079 122.018 33.1519C122.486 33.5719 123.35 34.0279 124.598 34.5199C126.122 35.1319 127.238 35.8519 127.958 36.6799C128.69 37.5079 129.05 38.5399 129.05 39.7639Z" fill="black"/>
<path fill-rule="evenodd" clip-rule="evenodd" d="M138.458 34.0885H135.326V40.2925C135.326 41.8645 135.878 42.6565 136.982 42.6565C137.486 42.6565 137.906 42.6085 138.242 42.5245L138.326 44.6845C137.762 44.8885 137.03 44.9965 136.118 44.9965C134.99 44.9965 134.126 44.6485 133.49 43.9645C132.854 43.2805 132.542 42.1285 132.542 40.5205V34.0765H130.682V31.9525H132.542V29.6125L135.326 28.7725V31.9525H138.458V34.0885Z" fill="black"/>
<path fill-rule="evenodd" clip-rule="evenodd" d="M149.606 38.3002C149.606 37.1242 149.354 36.1282 148.85 35.2882C148.25 34.2682 147.398 33.7642 146.294 33.7642C145.154 33.7642 144.278 34.2682 143.69 35.2882C143.174 36.1282 142.934 37.1482 142.934 38.3602C142.934 39.5362 143.186 40.5442 143.69 41.3722C144.302 42.3922 145.166 42.8962 146.27 42.8962C147.35 42.8962 148.202 42.3802 148.826 41.3482C149.342 40.4842 149.606 39.4762 149.606 38.3002ZM152.546 38.2402C152.546 40.2082 151.982 41.8162 150.866 43.0762C149.69 44.3722 148.13 45.0202 146.186 45.0202C144.314 45.0202 142.814 44.3962 141.698 43.1602C140.582 41.9242 140.03 40.3522 140.03 38.4562C140.03 36.4762 140.606 34.8562 141.746 33.5962C142.898 32.3362 144.446 31.7002 146.39 31.7002C148.262 31.7002 149.774 32.3242 150.914 33.5722C152.006 34.7722 152.546 36.3322 152.546 38.2402Z" fill="black"/>
<path fill-rule="evenodd" clip-rule="evenodd" d="M161.786 34.4475C161.51 34.3995 161.21 34.3755 160.886 34.3755C159.89 34.3755 159.11 34.7475 158.57 35.5035C158.102 36.1635 157.862 37.0155 157.862 38.0235V44.7315H155.018V35.9715C155.018 34.4955 154.994 33.1515 154.934 31.9515H157.406L157.514 34.3995H157.598C157.898 33.5595 158.366 32.8755 159.014 32.3715C159.65 31.9155 160.334 31.6875 161.066 31.6875C161.33 31.6875 161.57 31.7115 161.774 31.7355L161.786 34.4475Z" fill="black"/>
<path fill-rule="evenodd" clip-rule="evenodd" d="M171.77 37.0043C171.794 36.1643 171.602 35.4323 171.218 34.8203C170.726 34.0283 169.97 33.6323 168.962 33.6323C168.038 33.6323 167.282 34.0163 166.706 34.7843C166.238 35.3963 165.95 36.1403 165.866 36.9923L171.77 37.0043ZM174.482 37.7363C174.482 38.2403 174.446 38.6723 174.374 39.0203H165.854C165.89 40.2803 166.298 41.2523 167.09 41.9123C167.81 42.5003 168.734 42.8003 169.874 42.8003C171.134 42.8003 172.286 42.5963 173.318 42.2003L173.762 44.1683C172.55 44.6963 171.122 44.9603 169.478 44.9603C167.498 44.9603 165.938 44.3723 164.81 43.2083C163.682 42.0443 163.118 40.4723 163.118 38.5163C163.118 36.5963 163.646 34.9883 164.702 33.7043C165.806 32.3363 167.294 31.6523 169.166 31.6523C171.002 31.6523 172.406 32.3363 173.342 33.7043C174.098 34.8083 174.482 36.1403 174.482 37.7363Z" fill="black"/>
<path fill-rule="evenodd" clip-rule="evenodd" d="M74.174 17.036L73.442 14.756C73.37 14.528 73.226 13.976 72.998 13.112H72.974C72.878 13.484 72.758 14.024 72.554 14.756L71.834 17.036H74.174ZM76.73 20.672H75.242L74.426 18.116H71.594L70.814 20.672H69.374L72.17 11.96H73.898L76.73 20.672Z" fill="black"/>
<path fill-rule="evenodd" clip-rule="evenodd" d="M83.7381 14.3838L81.3621 20.6718H80.0061L77.7021 14.3838H79.2021L80.2701 17.7078C80.4501 18.2598 80.6061 18.7878 80.7261 19.2918H80.7621C80.8701 18.8358 81.0261 18.3078 81.2181 17.7078L82.2741 14.3838H83.7381Z" fill="black"/>
<path fill-rule="evenodd" clip-rule="evenodd" d="M88.6099 17.5404C87.0619 17.5404 86.2819 17.9124 86.2819 18.8124C86.2819 19.4724 86.6779 19.7964 87.2419 19.7964C87.9499 19.7964 88.6099 19.2564 88.6099 18.5124V17.5404ZM88.8019 20.6724L88.6939 19.9524H88.6579C88.2259 20.5284 87.6139 20.8164 86.8219 20.8164C85.6939 20.8164 84.9019 20.0244 84.9019 18.9684C84.9019 17.4204 86.2459 16.6164 88.5739 16.6164V16.4964C88.5739 15.6684 88.1299 15.2604 87.2659 15.2604C86.6419 15.2604 86.1019 15.4164 85.6219 15.7284L85.3339 14.8164C85.9099 14.4564 86.6419 14.2764 87.4939 14.2764C89.1379 14.2764 89.9659 15.1404 89.9659 16.8804V19.1964C89.9659 19.8324 89.9899 20.3244 90.0619 20.6964L88.8019 20.6724Z" fill="black"/>
<mask id="mask0_93_131" style="mask-type:luminance" maskUnits="userSpaceOnUse" x="0" y="0" width="203" height="61">
<path fill-rule="evenodd" clip-rule="evenodd" d="M0.5 60.5H203V0.5H0.5V60.5Z" fill="white"/>
</mask>
<g mask="url(#mask0_93_131)">
<path fill-rule="evenodd" clip-rule="evenodd" d="M92.4021 20.6596H93.7941V14.3836H92.4021V20.6596ZM93.0741 13.3516C92.6061 13.3516 92.2461 12.9916 92.2461 12.5116C92.2461 12.0316 92.6181 11.6836 93.0981 11.6836C93.5781 11.6836 93.9621 12.0316 93.9501 12.5116C93.9501 13.0156 93.5901 13.3516 93.0741 13.3516Z" fill="black"/>
<path fill-rule="evenodd" clip-rule="evenodd" d="M96.2781 20.6599H97.6701V11.5039H96.2781V20.6599Z" fill="black"/>
<path fill-rule="evenodd" clip-rule="evenodd" d="M103.406 17.5397C101.858 17.5397 101.078 17.9117 101.078 18.8117C101.078 19.4717 101.474 19.7957 102.038 19.7957C102.746 19.7957 103.406 19.2557 103.406 18.5117V17.5397ZM103.598 20.6717L103.49 19.9517H103.454C103.022 20.5277 102.41 20.8157 101.618 20.8157C100.49 20.8157 99.698 20.0237 99.698 18.9677C99.698 17.4197 101.042 16.6157 103.37 16.6157V16.4957C103.37 15.6677 102.926 15.2597 102.062 15.2597C101.438 15.2597 100.898 15.4157 100.418 15.7277L100.13 14.8037C100.706 14.4437 101.438 14.2637 102.29 14.2637C103.934 14.2637 104.762 15.1277 104.762 16.8677V19.1837C104.762 19.8197 104.786 20.3117 104.846 20.6837H103.598V20.6717Z" fill="black"/>
<path fill-rule="evenodd" clip-rule="evenodd" d="M110.138 15.3559C109.334 15.3559 108.602 16.0519 108.602 17.0239V18.1279C108.602 18.9919 109.262 19.6999 110.114 19.6999C111.158 19.6999 111.782 18.8479 111.782 17.4919C111.782 16.2199 111.134 15.3559 110.138 15.3559ZM110.426 20.8159C109.538 20.8159 108.878 20.4439 108.446 19.6999H108.422L108.338 20.6719H107.15C107.186 20.1679 107.198 19.6039 107.198 18.9799V11.5039H108.602V15.3079H108.626C109.046 14.6119 109.706 14.2639 110.63 14.2639C112.142 14.2639 113.198 15.5599 113.198 17.4439C113.198 19.3879 112.022 20.8159 110.426 20.8159Z" fill="black"/>
<path fill-rule="evenodd" clip-rule="evenodd" d="M115.262 20.6599H116.654V11.5039H115.262V20.6599Z" fill="black"/>
<path fill-rule="evenodd" clip-rule="evenodd" d="M122.978 16.8682C122.978 15.8962 122.486 15.2122 121.598 15.2122C120.794 15.2122 120.17 15.9082 120.074 16.8682H122.978ZM124.25 17.8642H120.062C120.086 19.0522 120.878 19.7242 122.042 19.7242C122.666 19.7242 123.23 19.6162 123.734 19.4242L123.95 20.3962C123.362 20.6602 122.666 20.7802 121.85 20.7802C119.882 20.7802 118.718 19.5442 118.718 17.6122C118.718 15.6922 119.906 14.2402 121.694 14.2402C123.29 14.2402 124.31 15.4282 124.31 17.2282C124.31 17.4802 124.298 17.6962 124.25 17.8642Z" fill="black"/>
<path fill-rule="evenodd" clip-rule="evenodd" d="M132.77 15.2837C131.762 15.2837 131.114 16.2317 131.114 17.5397C131.114 18.8357 131.774 19.7717 132.758 19.7717C133.742 19.7717 134.402 18.7637 134.402 17.5037C134.39 16.2317 133.754 15.2837 132.77 15.2837ZM132.71 20.8157C130.874 20.8157 129.686 19.4477 129.686 17.5877C129.686 15.6437 130.898 14.2637 132.818 14.2637C134.63 14.2637 135.842 15.5717 135.842 17.4797C135.842 19.4357 134.594 20.8157 132.71 20.8157Z" fill="black"/>
<path fill-rule="evenodd" clip-rule="evenodd" d="M143.342 20.672H141.95V17.06C141.95 15.944 141.518 15.392 140.678 15.392C139.85 15.392 139.286 16.1 139.286 16.928V20.66H137.894V16.184C137.894 15.632 137.882 15.032 137.846 14.384H139.07L139.13 15.356H139.166C139.538 14.684 140.306 14.252 141.158 14.252C142.478 14.252 143.342 15.26 143.342 16.904V20.672Z" fill="black"/>
<path fill-rule="evenodd" clip-rule="evenodd" d="M152.474 15.4402H150.938V18.4882C150.938 19.2682 151.214 19.6522 151.754 19.6522C151.994 19.6522 152.21 19.6282 152.378 19.5922L152.414 20.6482C152.138 20.7562 151.778 20.8042 151.334 20.8042C150.23 20.8042 149.582 20.1922 149.582 18.6082V15.4402H148.67V14.3962H149.582V13.2442L150.95 12.8242V14.3842H152.486V15.4402" fill="black"/>
<path fill-rule="evenodd" clip-rule="evenodd" d="M159.866 20.6719H158.474V17.0839C158.474 15.9559 158.042 15.3919 157.202 15.3919C156.482 15.3919 155.81 15.8839 155.81 16.8799V20.6599H154.418V11.5039H155.81V15.2719H155.834C156.278 14.5879 156.902 14.2519 157.718 14.2519C159.05 14.2519 159.866 15.2839 159.866 16.9279V20.6719Z" fill="black"/>
<path fill-rule="evenodd" clip-rule="evenodd" d="M165.722 16.8682C165.722 15.8962 165.23 15.2122 164.342 15.2122C163.538 15.2122 162.902 15.9082 162.818 16.8682H165.722ZM166.994 17.8642H162.806C162.83 19.0522 163.622 19.7242 164.786 19.7242C165.41 19.7242 165.974 19.6162 166.478 19.4242L166.694 20.3962C166.106 20.6602 165.41 20.7802 164.594 20.7802C162.626 20.7802 161.462 19.5442 161.462 17.6122C161.462 15.6922 162.65 14.2402 164.438 14.2402C166.034 14.2402 167.054 15.4282 167.054 17.2282C167.054 17.4802 167.042 17.6962 166.994 17.8642Z" fill="black"/>
</g>
</svg>
