<svg width="47" height="47" viewBox="0 0 47 47" fill="none" xmlns="http://www.w3.org/2000/svg">
<path d="M19.9104 30.0284L36.8144 30.0272H42.4312L44.2008 30.0254C44.504 30.0252 44.8168 30.0295 45.1188 30.0284C46.3514 30.0243 46.1758 30.9874 46.1758 31.8866V33.5075L46.1756 38.5467L46.1735 42.6642L46.1779 43.9287C46.182 44.7129 46.255 45.476 45.2239 45.5446C43.3694 45.5684 41.4721 45.5483 39.6151 45.5483L29.0194 45.548H22.9514L20.9566 45.5499C20.2214 45.5503 19.0037 45.7475 18.9421 44.712C18.9266 44.4511 18.9329 44.1851 18.9333 43.9234L18.9354 42.5655L18.9357 38.3064L18.9349 33.4063L18.9348 31.84C18.9347 30.9773 18.7585 30.0945 19.9104 30.0284ZM26.1965 40.0005L28.2396 40.0023C28.5891 40.0026 28.9428 40.0118 29.2912 39.9904C29.5206 39.9764 29.5633 39.8995 29.6482 39.7068C29.604 38.803 29.1209 37.8559 28.4464 37.2661C27.6462 36.5662 26.8503 36.3041 25.8116 36.3387C24.8218 36.3667 23.9536 36.7677 23.2748 37.4889C22.8059 37.9853 22.4878 38.6047 22.3574 39.2751C22.2879 39.6459 22.2201 39.9707 22.7169 39.9934C23.1197 40.0118 23.5233 40.003 23.9265 40.0023L26.1965 40.0005ZM42.9065 36.8744C43.6122 36.7413 43.8049 35.9672 43.2133 35.5341C43.0855 35.4407 42.8619 35.4511 42.71 35.4352C42.0461 35.4247 41.3799 35.4293 40.716 35.429L36.9367 35.4288L33.9356 35.429C33.4358 35.4293 32.7363 35.4093 32.255 35.4428C32.0228 35.4933 31.9163 35.5518 31.7763 35.746C31.5161 36.1072 31.6602 36.6001 32.0407 36.809C32.1729 36.8815 32.4386 36.8725 32.5917 36.8854C33.3578 36.8891 34.1266 36.8874 34.8926 36.8872L39.3608 36.8861L41.7627 36.8865C42.0009 36.8865 42.7073 36.9008 42.9065 36.8744ZM42.8654 33.6225C43.2959 33.5587 43.6282 33.2399 43.5516 32.7825C43.5174 32.5721 43.3946 32.3866 43.2142 32.2735C42.9694 32.1191 41.1912 32.1716 40.7915 32.1714H37.1329L34.0531 32.1718C33.5356 32.1721 32.8476 32.153 32.3427 32.1861C31.92 32.218 31.6049 32.5161 31.6471 32.9556C31.6655 33.1603 31.7685 33.3478 31.931 33.4733C32.0664 33.5763 32.1692 33.6064 32.3361 33.6144C32.7861 33.6362 33.2522 33.6275 33.7031 33.6273L36.2062 33.6259C38.3933 33.6254 40.6871 33.6619 42.8654 33.6225ZM42.8973 43.3961C43.136 43.3504 43.2952 43.2882 43.4407 43.0679C43.5523 42.9008 43.5885 42.6945 43.5408 42.4994C43.4398 42.093 43.1114 41.9556 42.7266 41.9526C41.3306 41.9418 39.9341 41.9468 38.5379 41.9473L30.6865 41.9475H25.1229C24.255 41.9475 23.0265 41.9106 22.1836 41.9599C21.9678 41.998 21.8217 42.0659 21.6878 42.2504C21.5709 42.4125 21.5245 42.6149 21.5594 42.8118C21.5966 43.0105 21.7165 43.1843 21.8892 43.2898C22.032 43.3784 22.1844 43.4004 22.3489 43.4011C23.7675 43.4082 25.1913 43.4036 26.6098 43.4034L34.936 43.4032H40.2473L41.9355 43.4041C42.2166 43.4043 42.6251 43.4158 42.8973 43.3961ZM42.6242 40.1485C43.099 40.1407 43.5672 39.9801 43.5594 39.4093C43.5578 39.2085 43.4733 39.0169 43.3258 38.8804C43.2312 38.7931 43.1307 38.7339 43.0033 38.7236C42.5604 38.6883 42.0952 38.7002 41.6498 38.7004L39.3028 38.7016C37.0966 38.7027 34.773 38.6651 32.5782 38.7036C32.3067 38.7101 32.043 38.6949 31.8388 38.9129C31.7077 39.0525 31.6379 39.2749 31.6501 39.4651C31.6609 39.6634 31.7538 39.8486 31.9065 39.9757C32.0579 40.1001 32.1864 40.1281 32.3767 40.1384C32.7654 40.1591 33.173 40.1488 33.5629 40.1485L35.7296 40.1483L42.6242 40.1485ZM26.2194 35.3698C27.3148 35.2337 28.0911 34.2334 27.9512 33.1387C27.8109 32.0438 26.8078 31.2711 25.7134 31.4154C24.6249 31.5589 23.8572 32.5556 23.9968 33.6445C24.1361 34.7337 25.1298 35.505 26.2194 35.3698Z" fill="#7B0018"/>
<path d="M22.5066 1.48926C22.5995 1.48938 22.6446 1.49857 22.7296 1.54182C23.5418 1.95504 24.3542 2.38611 25.1609 2.80858L29.7998 5.23493L44.3076 12.8193C44.1245 13.3201 43.6731 14.2601 43.4367 14.7668C43.1859 14.7879 42.8644 14.7782 42.6069 14.7779L41.229 14.776L36.753 14.7759L22.6624 14.7762L8.88417 14.7761C6.50147 14.7762 4.06814 14.8045 1.69091 14.7726C1.56008 14.449 0.872969 13.0147 0.869385 12.8154C1.05998 12.6872 1.46091 12.4899 1.6796 12.3753L3.07442 11.6454L7.7777 9.18543L22.5066 1.48926ZM22.6854 12.6617C24.9181 12.5982 26.6781 10.7398 26.6205 8.50694C26.5626 6.27414 24.7088 4.50925 22.4758 4.5613C20.2346 4.61353 18.4619 6.47566 18.5199 8.7166C18.5779 10.9575 20.4446 12.7255 22.6854 12.6617Z" fill="#7B0018"/>
<path d="M22.5155 5.46777C23.0653 5.46731 23.2649 5.80292 23.3244 6.29663C23.6718 6.44906 24.115 6.79518 24.1476 7.18885C24.1969 7.78652 23.7909 7.97874 23.292 8.00954C23.5908 8.16041 23.7818 8.29193 23.9766 8.579C24.2105 8.92792 24.2945 9.35622 24.2093 9.76761C24.0962 10.3201 23.7884 10.6045 23.3411 10.8979C23.2441 11.3661 23.1823 11.6172 22.6798 11.7541C22.1084 11.7495 21.8977 11.5116 21.8228 10.9612C21.6402 10.8143 21.4452 10.734 21.2643 10.5538C20.9224 10.2132 20.8487 9.74523 21.2338 9.40256C21.4328 9.22552 21.6084 9.22068 21.859 9.23388C21.762 9.17625 21.6598 9.11968 21.5668 9.05531C20.7515 8.49083 20.6821 7.28996 21.3936 6.61154C21.5022 6.50802 21.6763 6.39412 21.7996 6.30253C21.9381 5.81447 21.94 5.57704 22.5155 5.46777ZM22.3705 9.54622C22.5313 9.55987 22.5969 9.56774 22.7608 9.53752C22.7599 9.4378 22.775 9.46254 22.7245 9.39744C22.6154 9.3464 22.227 9.3173 22.0994 9.31335C22.1828 9.38654 22.2839 9.48028 22.3705 9.54622ZM23.007 7.91742C22.998 7.83652 22.9689 7.83726 22.8804 7.76671C22.8418 7.73637 22.8028 7.70649 22.7634 7.67703C22.6535 7.67973 22.5048 7.67898 22.3987 7.69135C22.3824 7.78613 22.3722 7.7461 22.4153 7.81849C22.5702 7.90197 22.8177 7.88194 23.007 7.91742Z" fill="#7B0018"/>
<path d="M6.18707 19.1426C6.6508 19.171 7.38465 19.1486 7.86633 19.1484L11.1669 19.1506C11.2329 20.275 11.261 21.4423 11.3067 22.5703L11.581 29.341L11.7649 33.8595C11.7963 34.6405 11.8476 35.4471 11.8496 36.2253C11.6164 36.2302 11.3831 36.2325 11.1498 36.2322L6.94875 36.2343C6.47717 36.2359 5.94722 36.2205 5.48413 36.2306C5.51575 35.796 5.52108 35.2709 5.53776 34.8303L5.64338 32.2113L5.98325 23.8511L6.09967 20.9483C6.12003 20.4158 6.12955 19.6555 6.18707 19.1426Z" fill="#7B0018"/>
<path d="M15.4577 19.1436C15.97 19.1649 16.6014 19.1486 17.1215 19.1485L20.4325 19.1517C20.5683 21.4801 20.5988 23.8588 20.7233 26.1916C20.7646 26.9659 20.7619 27.7911 20.8223 28.559C19.7891 28.6049 18.9814 28.4236 18.1474 29.2606C17.3737 30.037 17.4619 30.9106 17.4621 31.9165L17.4636 33.5865C17.4639 34.448 17.4825 35.3745 17.451 36.2284C16.5792 36.2387 15.5963 36.2066 14.7466 36.2303C14.7887 35.8199 14.7924 35.1753 14.8081 34.7537L14.9145 32.0955L15.2708 23.3222C15.3071 22.3 15.3494 21.278 15.3977 20.2563C15.4126 19.971 15.4082 19.4032 15.4577 19.1436Z" fill="#7B0018"/>
<path d="M4.42422 16.2356C5.27001 16.2201 6.15225 16.2317 7.0016 16.2316L11.7523 16.2315L25.9794 16.2313L35.7945 16.2314L39.0049 16.2315C39.6773 16.2315 40.3935 16.2194 41.0623 16.2486C40.9498 16.4321 40.6003 17.2873 40.4947 17.5271C40.4789 17.5706 40.4599 17.6273 40.4243 17.6563C40.3795 17.6926 40.315 17.7067 40.2588 17.7063C39.9109 17.7036 39.5609 17.6995 39.2133 17.6994L36.6923 17.6992L29.052 17.699L4.7125 17.7048C4.56042 17.2882 4.27665 16.6611 4.0918 16.2436L4.42422 16.2356Z" fill="#7B0018"/>
<path d="M33.995 19.1419C34.3597 19.1716 34.9846 19.1403 35.3731 19.1476C36.5543 19.1699 37.7913 19.1155 38.9688 19.159L39.1898 24.5447L39.2875 26.9785C39.3061 27.4749 39.3123 28.0736 39.3562 28.5611C39.2107 28.567 39.0408 28.5645 38.8933 28.5659L35.3745 28.5664C34.8753 28.5664 34.0664 28.5386 33.5952 28.5703C33.6565 26.3442 33.7772 24.0676 33.8662 21.8382L33.9385 19.9531C33.9461 19.7795 33.9555 19.289 33.995 19.1419Z" fill="#7B0018"/>
<path d="M24.7276 19.1416C25.086 19.1697 25.8532 19.147 26.239 19.1469C27.3931 19.1417 28.547 19.1442 29.7009 19.1545C29.8448 21.8835 29.9031 24.627 30.0346 27.3575C30.0536 27.7543 30.0522 28.1631 30.0899 28.5578C29.9584 28.5672 29.7778 28.564 29.6424 28.5654H26.091C25.648 28.5654 24.7255 28.5348 24.3262 28.5697L24.5986 21.8815C24.6208 21.2299 24.6463 20.5784 24.6755 19.9271C24.683 19.7557 24.6879 19.2883 24.7276 19.1416Z" fill="#7B0018"/>
<path d="M1.72766 40.5314C4.03947 40.4951 6.43654 40.5259 8.75407 40.5256L17.458 40.5318C17.4836 41.3362 17.4798 42.4931 17.4511 43.2965L16.5529 43.3011L4.60503 43.3025C4.14908 43.3025 1.03604 43.3385 0.860429 43.2765C0.841916 43.1802 1.6288 40.6927 1.72766 40.5314Z" fill="#7B0018"/>
<path d="M4.29035 37.6821C4.86151 37.6642 5.48219 37.6752 6.05638 37.6752L9.07912 37.675L17.459 37.6796C17.4699 38.1464 17.4672 38.6132 17.4509 39.0797L16.9194 39.0848L7.51497 39.0841L4.84909 39.0839C4.59365 39.0834 3.90306 39.0568 3.70312 39.0894C3.79357 38.8344 4.17225 37.8763 4.29035 37.6821Z" fill="#7B0018"/>
</svg>
