<svg width="31" height="31" viewBox="0 0 31 31" fill="none" xmlns="http://www.w3.org/2000/svg">
<path d="M24.2646 12.1325H23.8559L22.2596 8.148C21.9745 7.43955 21.4842 6.83246 20.8516 6.40466C20.219 5.97686 19.473 5.74787 18.7093 5.74709H11.0468C10.1596 5.74455 9.29901 6.05 8.61194 6.6113C7.92486 7.17261 7.45389 7.95497 7.27941 8.82486L6.61532 12.1325H6.38545C5.36934 12.1325 4.39485 12.5362 3.67635 13.2546C2.95785 13.9731 2.5542 14.9476 2.5542 15.9638V19.795C2.5542 20.1337 2.68875 20.4585 2.92825 20.698C3.16775 20.9375 3.49258 21.0721 3.83128 21.0721H5.10837C5.10837 22.0882 5.51201 23.0627 6.23051 23.7812C6.94901 24.4997 7.9235 24.9033 8.93962 24.9033C9.95573 24.9033 10.9302 24.4997 11.6487 23.7812C12.3672 23.0627 12.7709 22.0882 12.7709 21.0721H17.8792C17.8792 22.0882 18.2828 23.0627 19.0013 23.7812C19.7198 24.4997 20.6943 24.9033 21.7104 24.9033C22.7266 24.9033 23.7011 24.4997 24.4196 23.7812C25.1381 23.0627 25.5417 22.0882 25.5417 21.0721H26.8188C27.1575 21.0721 27.4823 20.9375 27.7218 20.698C27.9613 20.4585 28.0959 20.1337 28.0959 19.795V15.9638C28.0959 14.9476 27.6922 13.9731 26.9737 13.2546C26.2552 12.5362 25.2807 12.1325 24.2646 12.1325ZM16.6021 8.30125H18.7093C18.9629 8.30355 19.2101 8.38129 19.4193 8.52458C19.6286 8.66787 19.7904 8.87021 19.8842 9.10582L21.0974 12.1325H16.6021V8.30125ZM9.78249 9.32292C9.8422 9.03012 10.0027 8.76752 10.236 8.58084C10.4694 8.39416 10.7608 8.29523 11.0596 8.30125H14.0479V12.1325H9.22057L9.78249 9.32292ZM8.93962 22.3492C8.68703 22.3492 8.44012 22.2743 8.23011 22.1339C8.02009 21.9936 7.8564 21.7942 7.75974 21.5608C7.66308 21.3274 7.63779 21.0707 7.68707 20.8229C7.73635 20.5752 7.85798 20.3477 8.03658 20.1691C8.21518 19.9904 8.44274 19.8688 8.69047 19.8195C8.9382 19.7703 9.19498 19.7956 9.42833 19.8922C9.66169 19.9889 9.86114 20.1526 10.0015 20.3626C10.1418 20.5726 10.2167 20.8195 10.2167 21.0721C10.2167 21.4108 10.0821 21.7356 9.84265 21.9751C9.60315 22.2146 9.27832 22.3492 8.93962 22.3492ZM21.7104 22.3492C21.4579 22.3492 21.211 22.2743 21.0009 22.1339C20.7909 21.9936 20.6272 21.7942 20.5306 21.5608C20.4339 21.3274 20.4086 21.0707 20.4579 20.8229C20.5072 20.5752 20.6288 20.3477 20.8074 20.1691C20.986 19.9904 21.2136 19.8688 21.4613 19.8195C21.709 19.7703 21.9658 19.7956 22.1992 19.8922C22.4325 19.9889 22.632 20.1526 22.7723 20.3626C22.9126 20.5726 22.9875 20.8195 22.9875 21.0721C22.9875 21.4108 22.853 21.7356 22.6135 21.9751C22.374 22.2146 22.0492 22.3492 21.7104 22.3492ZM25.5417 18.5179H24.5456C24.1865 18.1228 23.7488 17.8072 23.2606 17.5912C22.7723 17.3752 22.2443 17.2636 21.7104 17.2636C21.1766 17.2636 20.6486 17.3752 20.1603 17.5912C19.6721 17.8072 19.2344 18.1228 18.8753 18.5179H11.7747C11.4156 18.1228 10.978 17.8072 10.4897 17.5912C10.0015 17.3752 9.4735 17.2636 8.93962 17.2636C8.40573 17.2636 7.87775 17.3752 7.38951 17.5912C6.90128 17.8072 6.46358 18.1228 6.10449 18.5179H5.10837V15.9638C5.10837 15.625 5.24292 15.3002 5.48241 15.0607C5.72191 14.8212 6.04675 14.6867 6.38545 14.6867H24.2646C24.6033 14.6867 24.9282 14.8212 25.1677 15.0607C25.4072 15.3002 25.5417 15.625 25.5417 15.9638V18.5179Z" fill="#7B0018"/>
</svg>
