<svg width="203" height="60" viewBox="0 0 203 60" fill="none" xmlns="http://www.w3.org/2000/svg">
<mask id="mask0_55_192296" style="mask-type:luminance" maskUnits="userSpaceOnUse" x="0" y="0" width="203" height="60">
<path fill-rule="evenodd" clip-rule="evenodd" d="M0 0H202.5V59.9999H0V0Z" fill="white"/>
</mask>
<g mask="url(#mask0_55_192296)">
<path fill-rule="evenodd" clip-rule="evenodd" d="M195 60H7.5C3.3 60 0 56.7 0 52.5V7.5C0 3.3 3.3 0 7.5 0H195C199.2 0 202.5 3.3 202.5 7.5V52.5C202.5 56.7 199.2 60 195 60Z" fill="black"/>
</g>
<path fill-rule="evenodd" clip-rule="evenodd" d="M113.4 19.4996V10.4996H114.75L119.1 17.5496V10.4996H120.3V19.4996H119.1L114.45 12.1496V19.4996H113.4ZM104.7 17.5496C105.3 18.1496 106.2 18.5996 107.1 18.5996C108 18.5996 108.9 18.2996 109.5 17.5496C110.1 16.9496 110.55 16.0496 110.55 14.9996C110.55 13.9496 110.25 13.0496 109.5 12.4496C108.9 11.8496 108 11.3996 107.1 11.3996C106.2 11.3996 105.3 11.6996 104.7 12.4496C104.1 13.0496 103.65 13.9496 103.65 14.9996C103.65 16.0496 103.95 16.9496 104.7 17.5496ZM110.4 18.2996C109.5 19.1996 108.45 19.6496 107.1 19.6496C105.75 19.6496 104.7 19.1996 103.8 18.2996C102.9 17.3996 102.45 16.3496 102.45 14.9996C102.45 13.6496 102.9 12.5996 103.8 11.6996C104.7 10.7996 105.75 10.3496 107.1 10.3496C108.45 10.3496 109.5 10.7996 110.4 11.6996C111.3 12.5996 111.75 13.6496 111.75 14.9996C111.75 16.3496 111.3 17.3996 110.4 18.2996ZM96.1501 19.4996H94.9501V11.5496H92.4001V10.4996H98.5501V11.5496H96.0001V19.4996H96.1501ZM89.8501 19.4996H91.0501V10.4996H89.8501V19.4996ZM82.9501 19.4996H81.7501V11.5496H79.2001V10.4996H85.5001V11.5496H82.9501V19.4996ZM78.0001 11.5496H73.9501V14.3996H77.7001V15.4496H73.9501V18.2996H78.0001V19.4996H72.7501V10.4996H78.0001V11.5496ZM71.1001 15.2996C71.1001 16.4996 70.8001 17.5496 70.0501 18.2996C69.1501 19.1996 68.1001 19.6496 66.7501 19.6496C65.4001 19.6496 64.3501 19.1996 63.4501 18.2996C62.5501 17.3996 62.1001 16.3496 62.1001 14.9996C62.1001 13.6496 62.5501 12.5996 63.4501 11.6996C64.3501 10.7996 65.4001 10.3496 66.7501 10.3496C67.3501 10.3496 67.9501 10.4996 68.5501 10.7996C69.1501 11.0996 69.6001 11.3996 69.9001 11.8496L69.1501 12.5996C68.5501 11.8496 67.8001 11.5496 66.7501 11.5496C65.8501 11.5496 64.9501 11.8496 64.3501 12.5996C63.6001 13.1996 63.3001 14.0996 63.3001 15.1496C63.3001 16.1996 63.6001 17.0996 64.3501 17.6996C65.1001 18.2996 65.8501 18.7496 66.7501 18.7496C67.8001 18.7496 68.5501 18.4496 69.3001 17.6996C69.7501 17.2496 70.0501 16.6496 70.0501 15.8996H66.7501V14.6996H71.1001V15.2996Z" fill="white"/>
<path d="M113.4 19.4996H113.373V19.5266H113.4V19.4996ZM113.4 10.4996V10.4726H113.373V10.4996H113.4ZM114.75 10.4996L114.773 10.4854L114.765 10.4726H114.75V10.4996ZM119.1 17.5496L119.077 17.5638L119.127 17.6448V17.5496H119.1ZM119.1 10.4996V10.4726H119.073V10.4996H119.1ZM120.3 10.4996H120.327V10.4726H120.3V10.4996ZM120.3 19.4996V19.5266H120.327V19.4996H120.3ZM119.1 19.4996L119.077 19.514L119.085 19.5266H119.1V19.4996ZM114.45 12.1496L114.473 12.1352L114.423 12.0564V12.1496H114.45ZM114.45 19.4996V19.5266H114.477V19.4996H114.45ZM104.7 17.5496L104.719 17.5304L104.717 17.5285L104.7 17.5496ZM109.5 17.5496L109.481 17.5304L109.479 17.5327L109.5 17.5496ZM109.5 12.4496L109.481 12.4688L109.483 12.4707L109.5 12.4496ZM104.7 12.4496L104.719 12.4688L104.721 12.4665L104.7 12.4496ZM94.9501 19.4996H94.9231V19.5266H94.9501V19.4996ZM94.9501 11.5496H94.9771V11.5226H94.9501V11.5496ZM92.4001 11.5496H92.3731V11.5766H92.4001V11.5496ZM92.4001 10.4996V10.4726H92.3731V10.4996H92.4001ZM98.5501 10.4996H98.5771V10.4726H98.5501V10.4996ZM98.5501 11.5496V11.5766H98.5771V11.5496H98.5501ZM96.0001 11.5496V11.5226H95.9731V11.5496H96.0001ZM96.0001 19.4996H95.9731V19.5266H96.0001V19.4996ZM89.8501 19.4996H89.8231V19.5266H89.8501V19.4996ZM91.0501 19.4996V19.5266H91.0771V19.4996H91.0501ZM91.0501 10.4996H91.0771V10.4726H91.0501V10.4996ZM89.8501 10.4996V10.4726H89.8231V10.4996H89.8501ZM82.9501 19.4996V19.5266H82.9771V19.4996H82.9501ZM81.7501 19.4996H81.7231V19.5266H81.7501V19.4996ZM81.7501 11.5496H81.7771V11.5226H81.7501V11.5496ZM79.2001 11.5496H79.1731V11.5766H79.2001V11.5496ZM79.2001 10.4996V10.4726H79.1731V10.4996H79.2001ZM85.5001 10.4996H85.5271V10.4726H85.5001V10.4996ZM85.5001 11.5496V11.5766H85.5271V11.5496H85.5001ZM82.9501 11.5496V11.5226H82.9231V11.5496H82.9501ZM78.0001 11.5496V11.5766H78.0271V11.5496H78.0001ZM73.9501 11.5496V11.5226H73.9231V11.5496H73.9501ZM73.9501 14.3996H73.9231V14.4266H73.9501V14.3996ZM77.7001 14.3996H77.7271V14.3726H77.7001V14.3996ZM77.7001 15.4496V15.4766H77.7271V15.4496H77.7001ZM73.9501 15.4496V15.4226H73.9231V15.4496H73.9501ZM73.9501 18.2996H73.9231V18.3266H73.9501V18.2996ZM78.0001 18.2996H78.0271V18.2726H78.0001V18.2996ZM78.0001 19.4996V19.5266H78.0271V19.4996H78.0001ZM72.7501 19.4996H72.7231V19.5266H72.7501V19.4996ZM72.7501 10.4996V10.4726H72.7231V10.4996H72.7501ZM78.0001 10.4996H78.0271V10.4726H78.0001V10.4996ZM69.9001 11.8496L69.9192 11.8687L69.9348 11.853L69.9226 11.8346L69.9001 11.8496ZM69.1501 12.5996L69.129 12.6165L69.1479 12.64L69.1692 12.6187L69.1501 12.5996ZM64.3501 12.5996L64.3674 12.6212L64.3712 12.6165L64.3501 12.5996ZM70.0501 15.8996H70.0771V15.8726H70.0501V15.8996ZM66.7501 15.8996H66.7231V15.9266H66.7501V15.8996ZM66.7501 14.6996V14.6726H66.7231V14.6996H66.7501ZM71.1001 14.6996H71.1271V14.6726H71.1001V14.6996ZM113.4 19.4996H113.427V10.4996H113.4H113.373V19.4996H113.4ZM113.4 10.4996V10.5266H114.75V10.4996V10.4726H113.4V10.4996ZM114.75 10.4996L114.727 10.5138L119.077 17.5638L119.1 17.5496L119.123 17.5354L114.773 10.4854L114.75 10.4996ZM119.1 17.5496H119.127V10.4996H119.1H119.073V17.5496H119.1ZM119.1 10.4996V10.5266H120.3V10.4996V10.4726H119.1V10.4996ZM120.3 10.4996H120.273V19.4996H120.3H120.327V10.4996H120.3ZM120.3 19.4996V19.4726H119.1V19.4996V19.5266H120.3V19.4996ZM119.1 19.4996L119.123 19.4852L114.473 12.1352L114.45 12.1496L114.427 12.164L119.077 19.514L119.1 19.4996ZM114.45 12.1496H114.423V19.4996H114.45H114.477V12.1496H114.45ZM114.45 19.4996V19.4726H113.4V19.4996V19.5266H114.45V19.4996ZM104.7 17.5496L104.681 17.5687C105.285 18.1728 106.192 18.6266 107.1 18.6266V18.5996V18.5726C106.209 18.5726 105.315 18.1264 104.719 17.5305L104.7 17.5496ZM107.1 18.5996V18.6266C108.006 18.6266 108.915 18.3246 109.521 17.5665L109.5 17.5496L109.479 17.5327C108.886 18.2746 107.994 18.5726 107.1 18.5726V18.5996ZM109.5 17.5496L109.519 17.5687C110.124 16.9641 110.577 16.0574 110.577 14.9996H110.55H110.523C110.523 16.0418 110.076 16.9351 109.481 17.5305L109.5 17.5496ZM110.55 14.9996H110.577C110.577 13.9446 110.276 13.0354 109.517 12.4285L109.5 12.4496L109.483 12.4707C110.225 13.0638 110.523 13.9546 110.523 14.9996H110.55ZM109.5 12.4496L109.519 12.4305C108.915 11.8264 108.009 11.3726 107.1 11.3726V11.3996V11.4266C107.992 11.4266 108.885 11.8728 109.481 12.4687L109.5 12.4496ZM107.1 11.3996V11.3726C106.194 11.3726 105.286 11.6746 104.679 12.4327L104.7 12.4496L104.721 12.4665C105.315 11.7246 106.206 11.4266 107.1 11.4266V11.3996ZM104.7 12.4496L104.681 12.4305C104.076 13.0351 103.623 13.9418 103.623 14.9996H103.65H103.677C103.677 13.9574 104.124 13.0641 104.719 12.4687L104.7 12.4496ZM103.65 14.9996H103.623C103.623 16.0546 103.925 16.9638 104.683 17.5707L104.7 17.5496L104.717 17.5285C103.976 16.9354 103.677 16.0446 103.677 14.9996H103.65ZM110.4 18.2996L110.381 18.2805C109.486 19.1754 108.443 19.6226 107.1 19.6226V19.6496V19.6766C108.457 19.6766 109.514 19.2238 110.419 18.3187L110.4 18.2996ZM107.1 19.6496V19.6226C105.757 19.6226 104.714 19.1754 103.819 18.2805L103.8 18.2996L103.781 18.3187C104.686 19.2238 105.743 19.6766 107.1 19.6766V19.6496ZM103.8 18.2996L103.819 18.2805C102.924 17.3856 102.477 16.3425 102.477 14.9996H102.45H102.423C102.423 16.3568 102.876 17.4136 103.781 18.3187L103.8 18.2996ZM102.45 14.9996H102.477C102.477 13.6568 102.924 12.6136 103.819 11.7187L103.8 11.6996L103.781 11.6805C102.876 12.5856 102.423 13.6425 102.423 14.9996H102.45ZM103.8 11.6996L103.819 11.7187C104.714 10.8238 105.757 10.3766 107.1 10.3766V10.3496V10.3226C105.743 10.3226 104.686 10.7754 103.781 11.6805L103.8 11.6996ZM107.1 10.3496V10.3766C108.443 10.3766 109.486 10.8238 110.381 11.7187L110.4 11.6996L110.419 11.6805C109.514 10.7754 108.457 10.3226 107.1 10.3226V10.3496ZM110.4 11.6996L110.381 11.7187C111.276 12.6136 111.723 13.6568 111.723 14.9996H111.75H111.777C111.777 13.6425 111.324 12.5856 110.419 11.6805L110.4 11.6996ZM111.75 14.9996H111.723C111.723 16.3425 111.276 17.3856 110.381 18.2805L110.4 18.2996L110.419 18.3187C111.324 17.4136 111.777 16.3568 111.777 14.9996H111.75ZM96.1501 19.4996V19.4726H94.9501V19.4996V19.5266H96.1501V19.4996ZM94.9501 19.4996H94.9771V11.5496H94.9501H94.9231V19.4996H94.9501ZM94.9501 11.5496V11.5226H92.4001V11.5496V11.5766H94.9501V11.5496ZM92.4001 11.5496H92.4271V10.4996H92.4001H92.3731V11.5496H92.4001ZM92.4001 10.4996V10.5266H98.5501V10.4996V10.4726H92.4001V10.4996ZM98.5501 10.4996H98.5231V11.5496H98.5501H98.5771V10.4996H98.5501ZM98.5501 11.5496V11.5226H96.0001V11.5496V11.5766H98.5501V11.5496ZM96.0001 11.5496H95.9731V19.4996H96.0001H96.0271V11.5496H96.0001ZM96.0001 19.4996V19.5266H96.1501V19.4996V19.4726H96.0001V19.4996ZM89.8501 19.4996V19.5266H91.0501V19.4996V19.4726H89.8501V19.4996ZM91.0501 19.4996H91.0771V10.4996H91.0501H91.0231V19.4996H91.0501ZM91.0501 10.4996V10.4726H89.8501V10.4996V10.5266H91.0501V10.4996ZM89.8501 10.4996H89.8231V19.4996H89.8501H89.8771V10.4996H89.8501ZM82.9501 19.4996V19.4726H81.7501V19.4996V19.5266H82.9501V19.4996ZM81.7501 19.4996H81.7771V11.5496H81.7501H81.7231V19.4996H81.7501ZM81.7501 11.5496V11.5226H79.2001V11.5496V11.5766H81.7501V11.5496ZM79.2001 11.5496H79.2271V10.4996H79.2001H79.1731V11.5496H79.2001ZM79.2001 10.4996V10.5266H85.5001V10.4996V10.4726H79.2001V10.4996ZM85.5001 10.4996H85.4731V11.5496H85.5001H85.5271V10.4996H85.5001ZM85.5001 11.5496V11.5226H82.9501V11.5496V11.5766H85.5001V11.5496ZM82.9501 11.5496H82.9231V19.4996H82.9501H82.9771V11.5496H82.9501ZM78.0001 11.5496V11.5226H73.9501V11.5496V11.5766H78.0001V11.5496ZM73.9501 11.5496H73.9231V14.3996H73.9501H73.9771V11.5496H73.9501ZM73.9501 14.3996V14.4266H77.7001V14.3996V14.3726H73.9501V14.3996ZM77.7001 14.3996H77.6731V15.4496H77.7001H77.7271V14.3996H77.7001ZM77.7001 15.4496V15.4226H73.9501V15.4496V15.4766H77.7001V15.4496ZM73.9501 15.4496H73.9231V18.2996H73.9501H73.9771V15.4496H73.9501ZM73.9501 18.2996V18.3266H78.0001V18.2996V18.2726H73.9501V18.2996ZM78.0001 18.2996H77.9731V19.4996H78.0001H78.0271V18.2996H78.0001ZM78.0001 19.4996V19.4726H72.7501V19.4996V19.5266H78.0001V19.4996ZM72.7501 19.4996H72.7771V10.4996H72.7501H72.7231V19.4996H72.7501ZM72.7501 10.4996V10.5266H78.0001V10.4996V10.4726H72.7501V10.4996ZM78.0001 10.4996H77.9731V11.5496H78.0001H78.0271V10.4996H78.0001ZM71.1001 15.2996H71.0731C71.0731 16.4954 70.7742 17.5374 70.031 18.2805L70.0501 18.2996L70.0692 18.3187C70.826 17.5619 71.1271 16.5038 71.1271 15.2996H71.1001ZM70.0501 18.2996L70.031 18.2805C69.1361 19.1754 68.093 19.6226 66.7501 19.6226V19.6496V19.6766C68.1072 19.6766 69.1641 19.2238 70.0692 18.3187L70.0501 18.2996ZM66.7501 19.6496V19.6226C65.4072 19.6226 64.3641 19.1754 63.4692 18.2805L63.4501 18.2996L63.431 18.3187C64.3361 19.2238 65.393 19.6766 66.7501 19.6766V19.6496ZM63.4501 18.2996L63.4692 18.2805C62.5743 17.3856 62.1271 16.3425 62.1271 14.9996H62.1001H62.0731C62.0731 16.3568 62.5259 17.4136 63.431 18.3187L63.4501 18.2996ZM62.1001 14.9996H62.1271C62.1271 13.6568 62.5743 12.6136 63.4692 11.7187L63.4501 11.6996L63.431 11.6805C62.5259 12.5856 62.0731 13.6425 62.0731 14.9996H62.1001ZM63.4501 11.6996L63.4692 11.7187C64.3641 10.8238 65.4072 10.3766 66.7501 10.3766V10.3496V10.3226C65.393 10.3226 64.3361 10.7754 63.431 11.6805L63.4501 11.6996ZM66.7501 10.3496V10.3766C67.3454 10.3766 67.9413 10.5254 68.538 10.8238L68.5501 10.7996L68.5622 10.7755C67.9589 10.4738 67.3548 10.3226 66.7501 10.3226V10.3496ZM68.5501 10.7996L68.538 10.8238C69.1369 11.1232 69.5816 11.4206 69.8776 11.8646L69.9001 11.8496L69.9226 11.8346C69.6186 11.3786 69.1633 11.076 68.5622 10.7755L68.5501 10.7996ZM69.9001 11.8496L69.881 11.8305L69.131 12.5805L69.1501 12.5996L69.1692 12.6187L69.9192 11.8687L69.9001 11.8496ZM69.1501 12.5996L69.1712 12.5827C68.565 11.8251 67.8065 11.5226 66.7501 11.5226V11.5496V11.5766C67.7937 11.5766 68.5352 11.8742 69.129 12.6165L69.1501 12.5996ZM66.7501 11.5496V11.5226C65.8444 11.5226 64.9355 11.8246 64.329 12.5827L64.3501 12.5996L64.3712 12.6165C64.9647 11.8746 65.8558 11.5766 66.7501 11.5766V11.5496ZM64.3501 12.5996L64.3332 12.5785C63.5747 13.1854 63.2731 14.0946 63.2731 15.1496H63.3001H63.3271C63.3271 14.1046 63.6255 13.2138 64.367 12.6207L64.3501 12.5996ZM63.3001 15.1496H63.2731C63.2731 16.2046 63.5747 17.1138 64.3332 17.7207L64.3501 17.6996L64.367 17.6785C63.6255 17.0854 63.3271 16.1946 63.3271 15.1496H63.3001ZM64.3501 17.6996L64.3332 17.7207C65.0843 18.3216 65.8405 18.7766 66.7501 18.7766V18.7496V18.7226C65.8597 18.7226 65.1158 18.2776 64.367 17.6785L64.3501 17.6996ZM66.7501 18.7496V18.7766C67.2777 18.7766 67.7314 18.7012 68.1478 18.5308C68.5643 18.3605 68.9422 18.0957 69.3192 17.7187L69.3001 17.6996L69.281 17.6805C68.908 18.0535 68.5359 18.3137 68.1274 18.4809C67.7188 18.648 67.2725 18.7226 66.7501 18.7226V18.7496ZM69.3001 17.6996L69.3192 17.7187C69.7737 17.2642 70.0771 16.6575 70.0771 15.8996H70.0501H70.0231C70.0231 16.6417 69.7265 17.235 69.281 17.6805L69.3001 17.6996ZM70.0501 15.8996V15.8726H66.7501V15.8996V15.9266H70.0501V15.8996ZM66.7501 15.8996H66.7771V14.6996H66.7501H66.7231V15.8996H66.7501ZM66.7501 14.6996V14.7266H71.1001V14.6996V14.6726H66.7501V14.6996ZM71.1001 14.6996H71.0731V15.2996H71.1001H71.1271V14.6996H71.1001Z" fill="white"/>
<mask id="mask1_55_192296" style="mask-type:luminance" maskUnits="userSpaceOnUse" x="0" y="0" width="203" height="60">
<path fill-rule="evenodd" clip-rule="evenodd" d="M0 60H202.5V0H0V60Z" fill="white"/>
</mask>
<g mask="url(#mask1_55_192296)">
<path fill-rule="evenodd" clip-rule="evenodd" d="M160.35 45.0004H163.2V26.2504H160.35V45.0004ZM185.55 33.0004L182.4 41.1004H182.25L178.95 33.0004H175.95L180.9 44.4004L178.05 50.7004H180.9L188.55 33.0004H185.55ZM169.8 42.9004C168.9 42.9004 167.55 42.4504 167.55 41.2504C167.55 39.7504 169.2 39.3004 170.55 39.3004C171.75 39.3004 172.35 39.6004 173.1 39.9004C172.8 41.7004 171.3 42.9004 169.8 42.9004ZM170.1 32.5504C168 32.5504 165.9 33.4504 165.15 35.4004L167.7 36.4504C168.3 35.4004 169.2 35.1004 170.25 35.1004C171.75 35.1004 173.1 36.0004 173.25 37.5004V37.6504C172.8 37.3504 171.6 36.9004 170.4 36.9004C167.7 36.9004 165 38.4004 165 41.1004C165 43.6504 167.25 45.3004 169.65 45.3004C171.6 45.3004 172.5 44.4004 173.25 43.5004H173.4V45.0004H176.1V37.8004C175.8 34.5004 173.25 32.5504 170.1 32.5504ZM152.85 35.2504H148.8V28.8004H152.85C154.95 28.8004 156.15 30.6004 156.15 31.9504C156 33.6004 154.8 35.2504 152.85 35.2504ZM152.7 26.2504H145.95V45.0004H148.8V37.9504H152.7C155.85 37.9504 158.85 35.7004 158.85 32.1004C158.85 28.5004 155.85 26.2504 152.7 26.2504ZM116.1 42.9004C114.15 42.9004 112.5 41.2504 112.5 39.0004C112.5 36.7504 114.15 35.1004 116.1 35.1004C118.05 35.1004 119.55 36.7504 119.55 39.0004C119.55 41.2504 118.05 42.9004 116.1 42.9004ZM119.4 34.0504C118.65 33.3004 117.45 32.5504 115.95 32.5504C112.8 32.5504 109.8 35.4004 109.8 39.0004C109.8 42.6004 112.65 45.3004 115.95 45.3004C117.45 45.3004 118.65 44.5504 119.25 43.8004H119.4V44.7004C119.4 47.1004 118.05 48.4504 115.95 48.4504C114.3 48.4504 113.1 47.2504 112.8 46.2004L110.4 47.2504C111.15 48.9004 112.95 51.0004 116.1 51.0004C119.4 51.0004 122.1 49.0504 122.1 44.4004V33.0004H119.4V34.0504ZM123.9 45.0004H126.75V26.2504H123.9V45.0004ZM130.95 38.8504C130.95 36.4504 132.9 35.1004 134.25 35.1004C135.3 35.1004 136.35 35.7004 136.65 36.4504L130.95 38.8504ZM139.65 36.7504C139.05 35.2504 137.55 32.7004 134.25 32.7004C130.95 32.7004 128.25 35.2504 128.25 39.1504C128.25 42.7504 130.95 45.6004 134.55 45.6004C137.4 45.6004 139.2 43.8004 139.8 42.7504L137.7 41.2504C136.95 42.3004 136.05 43.0504 134.55 43.0504C133.05 43.0504 132.15 42.4504 131.4 41.1004L139.95 37.5004L139.65 36.7504ZM71.5499 34.6504V37.3504H77.9999C77.8499 38.8504 77.2499 40.0504 76.4999 40.8004C75.5999 41.7004 74.0999 42.7504 71.5499 42.7504C67.4999 42.7504 64.4999 39.6004 64.4999 35.5504C64.4999 31.5004 67.6499 28.3504 71.5499 28.3504C73.6499 28.3504 75.2999 29.2504 76.4999 30.3004L78.4499 28.3504C76.7999 26.8504 74.6999 25.6504 71.6999 25.6504C66.2999 25.6504 61.6499 30.1504 61.6499 35.5504C61.6499 40.9504 66.2999 45.4504 71.6999 45.4504C74.6999 45.4504 76.7999 44.5504 78.5999 42.6004C80.3999 40.8004 80.9999 38.2504 80.9999 36.3004C80.9999 35.7004 80.9999 35.1004 80.8499 34.6504H71.5499ZM88.1999 42.9004C86.2499 42.9004 84.5999 41.2504 84.5999 39.0004C84.5999 36.7504 86.2499 35.1004 88.1999 35.1004C90.1499 35.1004 91.7999 36.6004 91.7999 39.0004C91.7999 41.2504 90.1499 42.9004 88.1999 42.9004ZM88.1999 32.7004C84.5999 32.7004 81.7499 35.4004 81.7499 39.1504C81.7499 42.7504 84.5999 45.6004 88.1999 45.6004C91.7999 45.6004 94.6499 42.9004 94.6499 39.1504C94.6499 35.2504 91.7999 32.7004 88.1999 32.7004ZM102.15 42.9004C100.2 42.9004 98.5499 41.2504 98.5499 39.0004C98.5499 36.7504 100.2 35.1004 102.15 35.1004C104.1 35.1004 105.75 36.6004 105.75 39.0004C105.75 41.2504 104.1 42.9004 102.15 42.9004ZM102.15 32.7004C98.5499 32.7004 95.6999 35.4004 95.6999 39.1504C95.6999 42.7504 98.5499 45.6004 102.15 45.6004C105.75 45.6004 108.6 42.9004 108.6 39.1504C108.6 35.2504 105.75 32.7004 102.15 32.7004Z" fill="white"/>
</g>
<mask id="mask2_55_192296" style="mask-type:luminance" maskUnits="userSpaceOnUse" x="15" y="11" width="20" height="38">
<path fill-rule="evenodd" clip-rule="evenodd" d="M15 13.3497V46.4997C15 47.4 15.3 48.1497 15.75 48.5997L15.9 48.75L34.5 30.15V29.8497L15.6 11.25C15.15 11.6997 15 12.4497 15 13.3497Z" fill="white"/>
</mask>
<g mask="url(#mask2_55_192296)">
<path fill-rule="evenodd" clip-rule="evenodd" d="M15 13.3497V46.4997C15 47.4 15.3 48.1497 15.75 48.5997L15.9 48.75L34.5 30.15V29.8497L15.6 11.25C15.15 11.6997 15 12.4497 15 13.3497Z" fill="#32BBFF"/>
</g>
<mask id="mask3_55_192296" style="mask-type:luminance" maskUnits="userSpaceOnUse" x="34" y="23" width="16" height="14">
<path fill-rule="evenodd" clip-rule="evenodd" d="M34.3501 29.8495V30.2995L40.5001 36.4495L48.0001 32.3995C50.1001 31.1995 50.1001 29.2495 48.0001 28.0492L40.6501 23.8495L40.5001 23.6992L34.3501 29.8495Z" fill="white"/>
</mask>
<g mask="url(#mask3_55_192296)">
<path fill-rule="evenodd" clip-rule="evenodd" d="M34.3501 29.8495V30.2995L40.5001 36.4495L48.0001 32.3995C50.1001 31.1995 50.1001 29.2495 48.0001 28.0492L40.6501 23.8495L40.5001 23.6992L34.3501 29.8495Z" fill="#FFD500"/>
</g>
<mask id="mask4_55_192296" style="mask-type:luminance" maskUnits="userSpaceOnUse" x="15" y="30" width="26" height="20">
<path fill-rule="evenodd" clip-rule="evenodd" d="M15.6001 48.7503C16.3501 49.5 17.4001 49.5 18.7501 48.9L40.6501 36.3L34.3501 30L15.6001 48.7503Z" fill="white"/>
</mask>
<g mask="url(#mask4_55_192296)">
<path fill-rule="evenodd" clip-rule="evenodd" d="M15.6001 48.7503C16.3501 49.5 17.4001 49.5 18.7501 48.9L40.6501 36.3L34.3501 30L15.6001 48.7503Z" fill="url(#paint0_linear_55_192296)"/>
</g>
<mask id="mask5_55_192296" style="mask-type:luminance" maskUnits="userSpaceOnUse" x="15" y="10" width="26" height="20">
<path fill-rule="evenodd" clip-rule="evenodd" d="M15.6001 11.3997L34.3501 29.9997L40.6501 23.6997L18.7501 11.25C18.1417 10.9119 17.5945 10.7568 17.1082 10.7568C16.5148 10.7565 16.0123 10.9875 15.6001 11.3997Z" fill="white"/>
</mask>
<g mask="url(#mask5_55_192296)">
<path fill-rule="evenodd" clip-rule="evenodd" d="M15.6001 11.3997L34.3501 29.9997L40.6501 23.6997L18.7501 11.25C18.1417 10.9119 17.5945 10.7568 17.1082 10.7568C16.5148 10.7565 16.0123 10.9875 15.6001 11.3997Z" fill="#29CC5E"/>
</g>
<path fill-rule="evenodd" clip-rule="evenodd" d="M40.5001 36.1504L18.7501 48.4504C17.5501 49.2004 16.5001 49.0504 15.7501 48.4504L15.6001 48.6004L15.7501 48.7504C16.5001 49.3504 17.5501 49.5004 18.7501 48.7504L40.5001 36.1504Z" fill="black"/>
<path fill-rule="evenodd" clip-rule="evenodd" d="M48 31.95L40.5 36.15L40.65 36.3L48 32.1C49.05 31.5 49.5 30.75 49.5 30C49.5 30.75 48.9 31.35 48 31.95ZM15.6 48.45C15.15 48 15 47.25 15 46.35V46.5C15 47.4 15.3 48.15 15.75 48.6V48.45H15.6Z" fill="black"/>
<path fill-rule="evenodd" clip-rule="evenodd" d="M18.75 11.3999L48 28.0499C48.9 28.6499 49.5 29.2499 49.5 29.9999C49.5 29.2499 49.05 28.4999 48 27.8999L18.75 11.2499C16.65 10.0499 15 10.9499 15 13.3499V13.4999C15 11.2499 16.65 10.1999 18.75 11.3999Z" fill="white"/>
<defs>
<linearGradient id="paint0_linear_55_192296" x1="15.1073" y1="20.2538" x2="-8.84054" y2="60.4597" gradientUnits="userSpaceOnUse">
<stop stop-color="#FF3A44"/>
<stop offset="1" stop-color="#C31162"/>
</linearGradient>
</defs>
</svg>
