<svg width="23" height="26" viewBox="0 0 23 26" fill="none" xmlns="http://www.w3.org/2000/svg">
<path d="M21.7105 7.69306L14.048 0.975605C13.3456 0.347337 12.4363 0 11.4939 0C10.5515 0 9.64213 0.347337 8.9397 0.975605L1.2772 7.69306C0.871562 8.05585 0.547862 8.50089 0.327657 8.99855C0.107452 9.49622 -0.00420487 10.0351 0.00012106 10.5793V21.741C0.00012106 22.7571 0.40377 23.7316 1.12227 24.4501C1.84077 25.1686 2.81526 25.5722 3.83137 25.5722H19.1564C20.1725 25.5722 21.147 25.1686 21.8655 24.4501C22.584 23.7316 22.9876 22.7571 22.9876 21.741V10.5665C22.9901 10.0245 22.8776 9.48806 22.6575 8.99273C22.4373 8.4974 22.1146 8.05442 21.7105 7.69306V7.69306ZM14.048 23.0181H8.9397V16.6326C8.9397 16.2939 9.07425 15.9691 9.31375 15.7296C9.55325 15.4901 9.87808 15.3556 10.2168 15.3556H12.771C13.1097 15.3556 13.4345 15.4901 13.674 15.7296C13.9135 15.9691 14.048 16.2939 14.048 16.6326V23.0181ZM20.4335 21.741C20.4335 22.0797 20.2989 22.4045 20.0594 22.644C19.8199 22.8835 19.4951 23.0181 19.1564 23.0181H16.6022V16.6326C16.6022 15.6165 16.1986 14.642 15.4801 13.9235C14.7616 13.205 13.7871 12.8014 12.771 12.8014H10.2168C9.20068 12.8014 8.22618 13.205 7.50768 13.9235C6.78919 14.642 6.38554 15.6165 6.38554 16.6326V23.0181H3.83137C3.49267 23.0181 3.16784 22.8835 2.92834 22.644C2.68884 22.4045 2.55429 22.0797 2.55429 21.741V10.5665C2.55452 10.3852 2.59336 10.206 2.66823 10.0408C2.74309 9.87568 2.85227 9.72836 2.9885 9.60869L10.651 2.904C10.884 2.69926 11.1837 2.58635 11.4939 2.58635C11.8041 2.58635 12.1037 2.69926 12.3367 2.904L19.9992 9.60869C20.1355 9.72836 20.2446 9.87568 20.3195 10.0408C20.3944 10.206 20.4332 10.3852 20.4335 10.5665V21.741Z" fill="#7B0018"/>
</svg>
