<svg width="55" height="54" viewBox="0 0 55 54" fill="none" xmlns="http://www.w3.org/2000/svg">
<rect width="55" height="54" rx="27" fill="#FFF8DE"/>
<path d="M24.7508 32.0006L37.6986 31.9998H42.0008L43.3563 31.9983C43.5885 31.9982 43.828 32.0015 44.0594 32.0006C45.0035 31.9975 44.869 32.7352 44.869 33.4239V34.6655L44.8688 38.5253L44.8673 41.6791L44.8706 42.6477C44.8738 43.2483 44.9297 43.8328 44.1399 43.8854C42.7194 43.9037 41.2662 43.8882 39.8438 43.8882L31.728 43.888H27.0801L25.5522 43.8894C24.989 43.8898 24.0563 44.0408 24.0092 43.2476C23.9973 43.0478 24.0021 42.844 24.0025 42.6437L24.0041 41.6036L24.0042 38.3412L24.0037 34.588L24.0035 33.3882C24.0035 32.7275 23.8685 32.0513 24.7508 32.0006ZM29.5657 39.6389L31.1307 39.6403C31.3984 39.6404 31.6693 39.6475 31.9361 39.6311C32.1119 39.6204 32.1446 39.5615 32.2096 39.4139C32.1757 38.7216 31.8057 37.9962 31.289 37.5444C30.6761 37.0083 30.0665 36.8075 29.2709 36.8341C28.5128 36.8555 27.8478 37.1626 27.3278 37.7151C26.9687 38.0953 26.725 38.5698 26.6251 39.0832C26.5719 39.3673 26.52 39.616 26.9005 39.6334C27.209 39.6475 27.5182 39.6408 27.827 39.6403L29.5657 39.6389ZM42.3648 37.2444C42.9054 37.1424 43.053 36.5495 42.5999 36.2178C42.502 36.1463 42.3307 36.1542 42.2144 36.142C41.7058 36.1339 41.1955 36.1375 40.687 36.1373L37.7922 36.1371L35.4936 36.1373C35.1107 36.1375 34.5749 36.1222 34.2063 36.1478C34.0284 36.1865 33.9469 36.2313 33.8396 36.38C33.6403 36.6567 33.7507 37.0343 34.0421 37.1943C34.1434 37.2498 34.3469 37.243 34.4642 37.2528C35.0509 37.2556 35.6398 37.2544 36.2266 37.2542L39.649 37.2533L41.4888 37.2537C41.6712 37.2537 42.2123 37.2646 42.3648 37.2444ZM42.3334 34.7535C42.6631 34.7047 42.9177 34.4605 42.859 34.1102C42.8328 33.949 42.7387 33.807 42.6006 33.7203C42.413 33.602 41.0511 33.6422 40.7448 33.6421H37.9425L35.5836 33.6424C35.1872 33.6426 34.6602 33.628 34.2735 33.6533C33.9497 33.6778 33.7083 33.9061 33.7407 34.2427C33.7547 34.3995 33.8337 34.5431 33.9581 34.6393C34.0618 34.7182 34.1406 34.7412 34.2684 34.7474C34.6131 34.7641 34.9701 34.7574 35.3155 34.7572L37.2327 34.7562C38.9079 34.7558 40.6649 34.7838 42.3334 34.7535ZM42.3578 42.2397C42.5406 42.2047 42.6626 42.1571 42.7741 41.9883C42.8595 41.8604 42.8873 41.7023 42.8507 41.5529C42.7734 41.2416 42.5218 41.1363 42.227 41.134C41.1578 41.1258 40.0881 41.1297 39.0187 41.13L33.0048 41.1302H28.7434C28.0786 41.1302 27.1376 41.1019 26.492 41.1397C26.3267 41.1689 26.2148 41.2209 26.1123 41.3622C26.0227 41.4863 25.9872 41.6414 26.0139 41.7922C26.0424 41.9444 26.1342 42.0775 26.2665 42.1583C26.3759 42.2262 26.4926 42.243 26.6186 42.2436C27.7052 42.249 28.7958 42.2455 29.8823 42.2453L36.2598 42.2452H40.3281L41.6211 42.2459C41.8364 42.246 42.1493 42.2548 42.3578 42.2397ZM42.1486 39.7522C42.5123 39.7463 42.8709 39.6232 42.8649 39.186C42.8637 39.0322 42.799 38.8855 42.686 38.7809C42.6136 38.7141 42.5366 38.6687 42.439 38.6608C42.0998 38.6337 41.7435 38.6429 41.4023 38.6431L39.6045 38.6439C37.9148 38.6448 36.135 38.616 34.4538 38.6455C34.2459 38.6504 34.0439 38.6388 33.8874 38.8058C33.7871 38.9127 33.7336 39.083 33.7429 39.2288C33.7512 39.3806 33.8224 39.5225 33.9393 39.6199C34.0553 39.7151 34.1537 39.7366 34.2995 39.7445C34.5972 39.7603 34.9094 39.7524 35.2081 39.7522L36.8676 39.7521L42.1486 39.7522ZM29.5833 36.0919C30.4223 35.9877 31.0169 35.2215 30.9097 34.383C30.8023 33.5443 30.034 32.9525 29.1957 33.0631C28.3619 33.1729 27.7739 33.9363 27.8808 34.7704C27.9875 35.6047 28.7487 36.1955 29.5833 36.0919Z" fill="#CD2029"/>
<path d="M26.7392 10.1404C26.8104 10.1405 26.8449 10.1476 26.91 10.1807C27.5321 10.4972 28.1544 10.8274 28.7723 11.151L32.3255 13.0095L43.4379 18.8188C43.2976 19.2023 42.9518 19.9224 42.7708 20.3105C42.5787 20.3266 42.3324 20.3192 42.1352 20.3189L41.0798 20.3175L37.6513 20.3174L26.8585 20.3177L16.305 20.3176C14.48 20.3177 12.6161 20.3394 10.7953 20.3149C10.6951 20.0671 10.1688 18.9684 10.166 18.8158C10.312 18.7176 10.6191 18.5664 10.7866 18.4787L11.855 17.9196L15.4575 16.0354L26.7392 10.1404ZM26.8762 18.6981C28.5863 18.6494 29.9344 17.2259 29.8902 15.5157C29.8459 13.8054 28.426 12.4536 26.7156 12.4935C24.999 12.5335 23.6412 13.9598 23.6856 15.6763C23.73 17.3927 25.1598 18.7469 26.8762 18.6981Z" fill="#CD2029"/>
<path d="M26.7461 13.1879C27.1671 13.1875 27.3201 13.4446 27.3656 13.8228C27.6317 13.9395 27.9712 14.2046 27.9961 14.5062C28.0339 14.9639 27.723 15.1112 27.3408 15.1348C27.5697 15.2503 27.7159 15.3511 27.8652 15.5709C28.0443 15.8382 28.1086 16.1663 28.0434 16.4814C27.9567 16.9046 27.721 17.1224 27.3784 17.3472C27.3041 17.7058 27.2568 17.8981 26.8718 18.003C26.4342 17.9994 26.2728 17.8172 26.2154 17.3956C26.0756 17.2831 25.9262 17.2216 25.7877 17.0836C25.5258 16.8227 25.4693 16.4642 25.7643 16.2018C25.9167 16.0662 26.0512 16.0625 26.2432 16.0726C26.1689 16.0284 26.0906 15.9851 26.0194 15.9358C25.3949 15.5034 25.3417 14.5836 25.8867 14.064C25.9699 13.9847 26.1033 13.8974 26.1977 13.8273C26.3038 13.4534 26.3052 13.2716 26.7461 13.1879ZM26.6349 16.3118C26.7581 16.3223 26.8084 16.3283 26.9339 16.3051C26.9332 16.2288 26.9448 16.2477 26.9061 16.1978C26.8225 16.1587 26.525 16.1365 26.4273 16.1334C26.4912 16.1895 26.5686 16.2613 26.6349 16.3118ZM27.1225 15.0642C27.1156 15.0022 27.0933 15.0028 27.0255 14.9488C26.9959 14.9255 26.9661 14.9026 26.9359 14.8801C26.8517 14.8821 26.7378 14.8816 26.6566 14.891C26.644 14.9636 26.6362 14.933 26.6693 14.9884C26.7879 15.0524 26.9775 15.037 27.1225 15.0642Z" fill="#CD2029"/>
<path d="M14.2386 23.6626C14.5938 23.6843 15.1559 23.6672 15.5249 23.667L18.053 23.6688C18.1035 24.53 18.125 25.4241 18.16 26.2881L18.3701 31.4742L18.511 34.9351C18.5351 35.5333 18.5743 36.1512 18.5759 36.7472C18.3972 36.7509 18.2186 36.7527 18.0399 36.7525L14.822 36.7541C14.4608 36.7553 14.0549 36.7436 13.7002 36.7513C13.7244 36.4184 13.7285 36.0162 13.7413 35.6787L13.8222 33.6727L14.0825 27.2691L14.1717 25.0457C14.1873 24.6378 14.1946 24.0555 14.2386 23.6626Z" fill="#CD2029"/>
<path d="M21.3396 23.6629C21.732 23.6793 22.2156 23.6667 22.614 23.6667L25.1501 23.6691C25.2541 25.4526 25.2775 27.2746 25.3728 29.0614C25.4045 29.6545 25.4024 30.2866 25.4487 30.8748C24.6573 30.9099 24.0386 30.771 23.3998 31.4121C22.8072 32.0068 22.8747 32.676 22.8749 33.4464L22.876 34.7256C22.8763 35.3855 22.8905 36.0951 22.8664 36.7492C22.1986 36.7571 21.4458 36.7325 20.7949 36.7506C20.8272 36.4363 20.83 35.9425 20.8421 35.6196L20.9235 33.5835L21.1965 26.8636C21.2243 26.0806 21.2567 25.2978 21.2937 24.5152C21.305 24.2967 21.3017 23.8617 21.3396 23.6629Z" fill="#CD2029"/>
<path d="M12.8884 21.436C13.5362 21.4241 14.212 21.433 14.8626 21.4329L18.5014 21.4328L29.3987 21.4327L36.9167 21.4328L39.3757 21.4328C39.8908 21.4329 40.4394 21.4236 40.9516 21.4459C40.8655 21.5865 40.5978 22.2415 40.5169 22.4252C40.5048 22.4585 40.4902 22.502 40.4629 22.5242C40.4287 22.552 40.3793 22.5628 40.3362 22.5624C40.0697 22.5604 39.8016 22.5573 39.5353 22.5572L37.6044 22.557L31.7523 22.5569L13.1092 22.5613C12.9927 22.2422 12.7754 21.7619 12.6338 21.4421L12.8884 21.436Z" fill="#CD2029"/>
<path d="M35.5386 23.6616C35.818 23.6844 36.2966 23.6604 36.5942 23.666C37.4989 23.6831 38.4464 23.6414 39.3483 23.6748L39.5176 27.8L39.5925 29.6641C39.6067 30.0444 39.6115 30.503 39.6451 30.8763C39.5336 30.8809 39.4035 30.879 39.2905 30.88L36.5953 30.8804C36.2129 30.8804 35.5933 30.8591 35.2324 30.8834C35.2794 29.1783 35.3718 27.4345 35.44 25.7269L35.4954 24.283C35.5012 24.15 35.5084 23.7743 35.5386 23.6616Z" fill="#CD2029"/>
<path d="M28.4403 23.662C28.7148 23.6836 29.3025 23.6661 29.5979 23.6661C30.482 23.6621 31.3658 23.664 32.2496 23.6719C32.3598 25.7622 32.4045 27.8636 32.5052 29.9551C32.5198 30.259 32.5187 30.5721 32.5476 30.8744C32.4468 30.8816 32.3085 30.8791 32.2048 30.8802H29.4846C29.1453 30.8802 28.4387 30.8568 28.1328 30.8835L28.3415 25.7606C28.3585 25.2615 28.378 24.7625 28.4004 24.2636C28.4062 24.1324 28.4098 23.7744 28.4403 23.662Z" fill="#CD2029"/>
<path d="M10.8237 40.0453C12.5944 40.0175 14.4305 40.041 16.2056 40.0409L22.8724 40.0456C22.8921 40.6617 22.8891 41.5478 22.8672 42.1632L22.1792 42.1668L13.0276 42.1678C12.6784 42.1678 10.2939 42.1954 10.1594 42.148C10.1452 42.0741 10.748 40.1688 10.8237 40.0453Z" fill="#CD2029"/>
<path d="M12.7857 37.8628C13.2232 37.849 13.6986 37.8575 14.1384 37.8575L16.4537 37.8573L22.8724 37.8608C22.8807 38.2184 22.8786 38.5759 22.8662 38.9333L22.459 38.9371L15.2556 38.9366L13.2137 38.9364C13.018 38.9361 12.4891 38.9157 12.3359 38.9407C12.4052 38.7454 12.6953 38.0115 12.7857 37.8628Z" fill="#CD2029"/>
</svg>
