<svg width="53" height="40" viewBox="0 0 53 40" fill="none" xmlns="http://www.w3.org/2000/svg">
<rect width="150" height="40" transform="translate(-97)" fill="#0077B5"/>
<path d="M22.4297 28.5H18.252V15.0684H22.4297V28.5ZM20.3184 13.2715C19.0156 13.2715 17.9375 12.1484 17.9375 10.8008C17.9375 9.49805 19.0156 8.41992 20.3184 8.41992C21.666 8.41992 22.7441 9.49805 22.7441 10.8008C22.7441 12.1484 21.666 13.2715 20.3184 13.2715ZM38.0176 28.5H33.8848V21.9863C33.8848 20.4141 33.8398 18.4375 31.6836 18.4375C29.5273 18.4375 29.2129 20.0996 29.2129 21.8516V28.5H25.0352V15.0684H29.0332V16.9102H29.0781C29.6621 15.877 31.0098 14.7539 33.0312 14.7539C37.2539 14.7539 38.0625 17.5391 38.0625 21.1328V28.5H38.0176Z" fill="white"/>
<a href="https://www.linkedin.com/authwall">
<rect fill="black" fill-opacity="0" x="0.4375" y="-1.725" width="20.125" height="26.45"/>
</a>
</svg>
