<svg width="24" height="24" viewBox="0 0 24 24" fill="none" xmlns="http://www.w3.org/2000/svg">
<path d="M19 11.25C20.5188 11.25 21.75 12.4812 21.75 14V19C21.75 20.5188 20.5188 21.75 19 21.75H15C13.4812 21.75 12.25 20.5188 12.25 19V14C12.25 12.4812 13.4812 11.25 15 11.25H19ZM15 12.75C14.3096 12.75 13.75 13.3096 13.75 14V19C13.75 19.6904 14.3096 20.25 15 20.25H19C19.6904 20.25 20.25 19.6904 20.25 19V14C20.25 13.3096 19.6904 12.75 19 12.75H15ZM7 1.25C7.9665 1.25 8.75 2.0335 8.75 3V3.75H14.25V3C14.25 2.0335 15.0335 1.25 16 1.25H19C19.9665 1.25 20.75 2.0335 20.75 3V6C20.75 6.9665 19.9665 7.75 19 7.75H18.25V9C18.25 9.41421 17.9142 9.75 17.5 9.75C17.0858 9.75 16.75 9.41421 16.75 9V7.75H16C15.0335 7.75 14.25 6.9665 14.25 6V5.25H8.75V6C8.75 6.9665 7.9665 7.75 7 7.75H6.25V13.25H7C7.9665 13.25 8.75 14.0335 8.75 15V15.75H10C10.4142 15.75 10.75 16.0858 10.75 16.5C10.75 16.9142 10.4142 17.25 10 17.25H8.75V18C8.75 18.9665 7.9665 19.75 7 19.75H4C3.0335 19.75 2.25 18.9665 2.25 18V15C2.25 14.0335 3.0335 13.25 4 13.25H4.75V7.75H4C3.0335 7.75 2.25 6.9665 2.25 6V3C2.25 2.0335 3.0335 1.25 4 1.25H7ZM18 17C18.4142 17 18.75 17.3358 18.75 17.75C18.75 18.1642 18.4142 18.5 18 18.5H16C15.5858 18.5 15.25 18.1642 15.25 17.75C15.25 17.3358 15.5858 17 16 17H18ZM4 14.75C3.86193 14.75 3.75 14.8619 3.75 15V18C3.75 18.1381 3.86193 18.25 4 18.25H7C7.13807 18.25 7.25 18.1381 7.25 18V15C7.25 14.8619 7.13807 14.75 7 14.75H4ZM18 14.5C18.4142 14.5 18.75 14.8358 18.75 15.25C18.75 15.6642 18.4142 16 18 16H16C15.5858 16 15.25 15.6642 15.25 15.25C15.25 14.8358 15.5858 14.5 16 14.5H18ZM4 2.75C3.86193 2.75 3.75 2.86193 3.75 3V6C3.75 6.13807 3.86193 6.25 4 6.25H7C7.13807 6.25 7.25 6.13807 7.25 6V3C7.25 2.86193 7.13807 2.75 7 2.75H4ZM16 2.75C15.8619 2.75 15.75 2.86193 15.75 3V6C15.75 6.13807 15.8619 6.25 16 6.25H19C19.1381 6.25 19.25 6.13807 19.25 6V3C19.25 2.86193 19.1381 2.75 19 2.75H16Z" fill="#CD2029"/>
</svg>
