<svg width="53" height="40" viewBox="0 0 53 40" fill="none" xmlns="http://www.w3.org/2000/svg">
<rect width="150" height="40" transform="translate(-97)" fill="#27BD03"/>
<path d="M35.0078 12.7773C36.8945 14.6641 38.0625 17.1348 38.0625 19.8301C38.0625 25.3105 33.4805 29.8027 27.9551 29.8027C26.293 29.8027 24.6758 29.3535 23.1934 28.5898L17.9375 29.9375L19.3301 24.7715C18.4766 23.2891 17.9824 21.582 17.9824 19.7852C17.9824 14.3047 22.4746 9.8125 27.9551 9.8125C30.6504 9.8125 33.166 10.8906 35.0078 12.7773ZM27.9551 28.0957C32.5371 28.0957 36.3555 24.3672 36.3555 19.8301C36.3555 17.584 35.4121 15.5176 33.8398 13.9453C32.2676 12.373 30.2012 11.5195 28 11.5195C23.418 11.5195 19.6895 15.248 19.6895 19.7852C19.6895 21.3574 20.1387 22.8848 20.9473 24.2324L21.1719 24.5469L20.3184 27.6016L23.4629 26.748L23.7324 26.9277C25.0352 27.6914 26.4727 28.0957 27.9551 28.0957ZM32.5371 21.8965C32.7617 22.0312 32.9414 22.0762 32.9863 22.2109C33.0762 22.3008 33.0762 22.7949 32.8516 23.3789C32.627 23.9629 31.6387 24.502 31.1895 24.5469C30.3809 24.6816 29.752 24.6367 28.1797 23.918C25.6641 22.8398 24.0469 20.3242 23.9121 20.1895C23.7773 20.0098 22.9238 18.8418 22.9238 17.584C22.9238 16.3711 23.5527 15.7871 23.7773 15.5176C24.002 15.248 24.2715 15.2031 24.4512 15.2031C24.5859 15.2031 24.7656 15.2031 24.9004 15.2031C25.0801 15.2031 25.2598 15.1582 25.4844 15.6523C25.6641 16.1465 26.2031 17.3594 26.248 17.4941C26.293 17.6289 26.3379 17.7637 26.248 17.9434C25.7988 18.8867 25.2598 18.8418 25.5293 19.291C26.5176 20.9531 27.4609 21.5371 28.9434 22.2559C29.168 22.3906 29.3027 22.3457 29.4824 22.2109C29.6172 22.0312 30.1113 21.4473 30.2461 21.2227C30.4258 20.9531 30.6055 20.998 30.8301 21.0879C31.0547 21.1777 32.2676 21.7617 32.5371 21.8965Z" fill="white"/>
<a href="https://wa.me/message/GFOLYHMKQGOKF1">
<rect fill="black" fill-opacity="0" x="0.4375" y="-1.725" width="20.125" height="26.45"/>
</a>
</svg>
