<svg width="53" height="40" viewBox="0 0 53 40" fill="none" xmlns="http://www.w3.org/2000/svg">
<rect width="150" height="40" transform="translate(-97)" fill="#B30000"/>
<path d="M39.7246 13.9902C40.2637 15.877 40.2637 19.9199 40.2637 19.9199C40.2637 19.9199 40.2637 23.918 39.7246 25.8496C39.4551 26.9277 38.6016 27.7363 37.5684 28.0059C35.6367 28.5 28 28.5 28 28.5C28 28.5 20.3184 28.5 18.3867 28.0059C17.3535 27.7363 16.5 26.9277 16.2305 25.8496C15.6914 23.918 15.6914 19.9199 15.6914 19.9199C15.6914 19.9199 15.6914 15.877 16.2305 13.9902C16.5 12.9121 17.3535 12.0586 18.3867 11.7891C20.3184 11.25 28 11.25 28 11.25C28 11.25 35.6367 11.25 37.5684 11.7891C38.6016 12.0586 39.4551 12.9121 39.7246 13.9902ZM25.4844 23.5586L31.8633 19.9199L25.4844 16.2812V23.5586Z" fill="white"/>
<a href="https://www.youtube.com/pnbindia">
<rect fill="black" fill-opacity="0" x="0.0625" y="-1.725" width="25.875" height="26.45"/>
</a>
</svg>
